<svg xmlns="http://www.w3.org/2000/svg" viewBox="0 0 500 500"><g id="freepik--Character--inject-2"><path d="M235.4,436.11l1.19,21.67s-21.63,8.49-21.8,12.51l42.1-.79-.47-33.84Z" style="fill:#263238"></path><path d="M249.57,455.71a1.73,1.73,0,0,1,1.23,1.94,1.65,1.65,0,0,1-1.91,1.23,1.8,1.8,0,0,1-1.29-2.06,1.72,1.72,0,0,1,2.13-1.06" style="fill:#e0e0e0"></path><path d="M256.89,469.5l-.18-3.41-40.3,2s-1.85.85-1.62,2.16Z" style="fill:#455a64"></path><path d="M235.9,457.58c0,.21,1,.28,2.07.92s1.58,1.5,1.76,1.41-.14-1.26-1.39-2S235.85,457.39,235.9,457.58Z" style="fill:#fff"></path><path d="M231.52,459.49c0,.2.86.53,1.57,1.39s.93,1.77,1.14,1.76.31-1.18-.6-2.23S231.52,459.29,231.52,459.49Z" style="fill:#fff"></path><path d="M229.11,464.82c.19,0,.46-1-.09-2.11s-1.52-1.54-1.6-1.37.52.76,1,1.69S228.91,464.81,229.11,464.82Z" style="fill:#fff"></path><path d="M236.18,452.61c.09.19,1-.11,2.19-.06s2.08.41,2.18.23-.78-.89-2.15-.94S236.08,452.45,236.18,452.61Z" style="fill:#fff"></path><path d="M286.37,434l2.28,26.15-4.16,21.21a2.69,2.69,0,0,0,2.3,3.19h0a2.67,2.67,0,0,0,2.31-.84c3.76-4.1,17.49-19.21,17.21-21.12-.32-2.21-.57-27.75-.57-27.75Z" style="fill:#263238"></path><path d="M286.79,484.53,306.2,460.8l.07,1.11a4.08,4.08,0,0,1-.79,2.68c-1.54,2.07-5.91,7.67-16.3,19.09a2.65,2.65,0,0,1-2.39.85Z" style="fill:#455a64"></path><g style="opacity:0.6000000000000001"><path d="M300.28,452.7a1.62,1.62,0,0,0-.31,2.15,1.58,1.58,0,0,0,2.13.32,1.72,1.72,0,0,0,.31-2.28,1.63,1.63,0,0,0-2.25-.09" style="fill:#fff"></path></g><path d="M292,472.7a8,8,0,0,0-2.42-1.89,8.22,8.22,0,0,0-3.06-.39c0-.06.29-.28.9-.41a4.23,4.23,0,0,1,2.38.26,4.16,4.16,0,0,1,1.86,1.5C292,472.29,292.11,472.67,292,472.7Z" style="fill:#fff"></path><path d="M290.4,476.33a20.3,20.3,0,0,0-2.39-1,22.93,22.93,0,0,0-2.58-.17,3,3,0,0,1,2.71-.39C289.71,475.14,290.53,476.25,290.4,476.33Z" style="fill:#fff"></path><path d="M295.23,468a27.66,27.66,0,0,0-3.59-1.76c-2.1-.69-3.93-.48-3.95-.66a6,6,0,0,1,4.12.11A6,6,0,0,1,295.23,468Z" style="fill:#fff"></path><path d="M295.2,460c-.06.16-1.55-.35-3.43-.3s-3.36.6-3.42.44a5.24,5.24,0,0,1,3.4-1A5.18,5.18,0,0,1,295.2,460Z" style="fill:#fff"></path><path d="M294.73,452.27a13.48,13.48,0,0,0-3.57-.4,13.07,13.07,0,0,0-3.42,1.09c-.05,0,.22-.4.8-.78a5.81,5.81,0,0,1,5.25-.52C294.43,451.92,294.76,452.21,294.73,452.27Z" style="fill:#fff"></path><path d="M291.11,450.4a2.43,2.43,0,0,1-.1-1,6.9,6.9,0,0,1,.62-2.64,3.14,3.14,0,0,1,1.22-1.55,1.09,1.09,0,0,1,1.23.17,1.71,1.71,0,0,1,.49,1.15,3.8,3.8,0,0,1-3.1,3.73,4.43,4.43,0,0,1-4.47-2,1.49,1.49,0,0,1-.15-1.26,1.06,1.06,0,0,1,1.07-.63,3.75,3.75,0,0,1,1.78.78,7.79,7.79,0,0,1,1.92,1.92,2.43,2.43,0,0,1,.46.88,12.5,12.5,0,0,0-2.6-2.46,3.55,3.55,0,0,0-1.58-.65.57.57,0,0,0-.58.34,1,1,0,0,0,.15.83,3.93,3.93,0,0,0,3.89,1.71,3.3,3.3,0,0,0,2.68-3.12,1.24,1.24,0,0,0-.31-.82.57.57,0,0,0-.68-.1,2.77,2.77,0,0,0-1.05,1.28A10.32,10.32,0,0,0,291.11,450.4Z" style="fill:#fff"></path><path d="M214.55,254.12a93,93,0,0,0-2,27.42c.45,5.82,20.11,167,20.11,167h26.55l-7.46-151.5,2.17.47s14.49,64.62,15.68,75.08c1.06,9.4,13.28,77.72,13.28,77.72l24.28.28-7.76-90.37-9-86.7L287,248.3Z" style="fill:#263238"></path><path d="M255.89,281.6a4.79,4.79,0,0,1-1.1.63,13.38,13.38,0,0,1-3.29,1.15,7.15,7.15,0,0,1-2.45,0,5.06,5.06,0,0,1-2.55-1.23,6.09,6.09,0,0,1-1.56-2.71c-.31-1-.49-2.11-.71-3.2-.84-4.37-1.42-8.36-1.75-11.26-.17-1.45-.28-2.62-.34-3.44a5.17,5.17,0,0,1,0-1.27,5.94,5.94,0,0,1,.25,1.25c.14.92.31,2.06.51,3.41.44,2.88,1.07,6.85,1.92,11.21.42,2.15.72,4.35,2.06,5.63a5.54,5.54,0,0,0,4.59,1.2,15.72,15.72,0,0,0,3.26-1A7,7,0,0,1,255.89,281.6Z" style="fill:#455a64"></path><path d="M247.9,261.06s.18-.14.55-.17a2.43,2.43,0,0,1,1.48.48,2.62,2.62,0,0,1,1.12,2.05,2.63,2.63,0,0,1-4.48,1.68,2.63,2.63,0,0,1-.5-2.28,2.28,2.28,0,0,1,.8-1.33c.3-.23.51-.27.52-.24a2.91,2.91,0,0,0-.93,1.65,2.32,2.32,0,0,0,.5,1.86,2.16,2.16,0,0,0,3.58-1.34,2.38,2.38,0,0,0-.85-1.74A3,3,0,0,0,247.9,261.06Z" style="fill:#455a64"></path><path d="M226.18,71.38c4.28-1,8.42,3,12.79,2.45,2.65-.34,4.76-2.31,7.17-3.46a13.44,13.44,0,0,1,12,.31c3.44,2,5.61,4.1,5.84,8.09,3.36-1.65,8.5,2.77,10.09,6.82s.87,8.09-.44,12.24a57.39,57.39,0,0,1-10.76,19.56c-.43.51-1.09,1.06-1.67.74a1.44,1.44,0,0,1-.55-1.2c-.37-3.89.36-7.8,1-11.66s1-7.87,0-11.66-3.67-7.34-7.46-8.34a12.38,12.38,0,0,0-8.39,1.24c-2.6,1.25-4.93,3-7.43,4.46a16.06,16.06,0,0,1-8.16,2.58c-2.89-.06-5.89-1.62-7-4.3s.56-6.31,3.41-6.73a5.68,5.68,0,0,1-.43-11.14Z" style="fill:#263238"></path><path d="M225.87,117.62c.46-5.33,2.31-16.23,4.09-26.07a20.65,20.65,0,0,1,22.35-16.88l1.06.11c11.41,1.8,14.87,12.81,12.75,24.16l-3.62,38.13-23.78,16.47-3.26-8.15v-14S224.92,128.66,225.87,117.62Z" style="fill:#ffbf9d"></path><path d="M235.46,131.37a26.16,26.16,0,0,0,15.09-2.57s-4.19,7.39-15.09,5.31Z" style="fill:#ff9a6c"></path><path d="M231.31,102.33a1.59,1.59,0,0,0,1.36,1.74,1.53,1.53,0,0,0,1.77-1.26,1.58,1.58,0,0,0-1.36-1.74A1.52,1.52,0,0,0,231.31,102.33Z" style="fill:#263238"></path><path d="M231.8,97.17c.17.22,1.45-.54,3.15-.37s2.85,1.14,3.05,1-.06-.47-.56-.92a4.41,4.41,0,0,0-2.42-1,4.16,4.16,0,0,0-2.54.55C231.92,96.71,231.71,97.07,231.8,97.17Z" style="fill:#263238"></path><path d="M246.27,103.85a1.59,1.59,0,0,0,1.37,1.74,1.51,1.51,0,0,0,1.76-1.26,1.58,1.58,0,0,0-1.36-1.74A1.52,1.52,0,0,0,246.27,103.85Z" style="fill:#263238"></path><path d="M248.42,99.13c.18.23,1.46-.54,3.15-.37s2.85,1.15,3.06,1-.06-.48-.57-.92a4.28,4.28,0,0,0-2.42-1,4.13,4.13,0,0,0-2.53.55C248.55,98.68,248.34,99,248.42,99.13Z" style="fill:#263238"></path><path d="M241,111.09a11.73,11.73,0,0,0-2.7-.77c-.43-.08-.83-.21-.88-.51a2.22,2.22,0,0,1,.42-1.26c.51-1,1-2.06,1.6-3.17,2.25-4.51,3.91-8.24,3.73-8.33s-2.15,3.5-4.39,8l-1.55,3.2a2.49,2.49,0,0,0-.39,1.67,1.1,1.1,0,0,0,.65.71,2.75,2.75,0,0,0,.72.17A11,11,0,0,0,241,111.09Z" style="fill:#263238"></path><path d="M249.11,90.43c.12.48,1.84.43,3.8.87s3.52,1.13,3.82.75c.14-.19-.09-.65-.7-1.16a6.57,6.57,0,0,0-2.76-1.29,6.65,6.65,0,0,0-3.05.06C249.46,89.88,249.06,90.21,249.11,90.43Z" style="fill:#263238"></path><path d="M232.9,92.33c.26.41,1.47.13,2.88.25s2.56.51,2.88.14c.14-.19,0-.59-.5-1a4.16,4.16,0,0,0-4.63-.31C233,91.75,232.79,92.13,232.9,92.33Z" style="fill:#263238"></path><path d="M264.92,106.56c.2-.07,8.67-1.35,7.68,6.17s-8.32,5-8.31,4.75S264.92,106.56,264.92,106.56Z" style="fill:#ffbf9d"></path><path d="M267,114.94s.12.11.33.24a1.31,1.31,0,0,0,1,.15,3.25,3.25,0,0,0,1.88-2.71,4.41,4.41,0,0,0-.12-1.93,1.49,1.49,0,0,0-.85-1.13.68.68,0,0,0-.82.26c-.13.19-.1.35-.14.36s-.15-.15,0-.45a.9.9,0,0,1,.36-.43,1,1,0,0,1,.75-.1,1.86,1.86,0,0,1,1.22,1.35,4.37,4.37,0,0,1,.17,2.15c-.24,1.51-1.2,2.82-2.33,3a1.39,1.39,0,0,1-1.17-.35C267,115.12,266.93,115,267,114.94Z" style="fill:#ff9a6c"></path><path d="M230.85,81.24A14.33,14.33,0,0,1,236,76.37a24.65,24.65,0,0,1,14.75-3.69,20.12,20.12,0,0,1,13.51,6.69A21.33,21.33,0,0,1,269,90.6a37.77,37.77,0,0,1-.74,13.49c-.5,1.74-1.56,2.28-2.93,3.46-.86.74-2.25,1.14-3.07.37a3,3,0,0,1-.71-1.83c-.87-6-1.69-12.36,1-17.75a17.48,17.48,0,0,0-4.72-5.29,9,9,0,0,0-6.76-1.61c-3.46.7-5.86,3.77-8.76,5.78A16,16,0,0,1,227.85,89Z" style="fill:#263238"></path><path d="M274.41,95.22c0-.08-.81-.06-2.08-.28a13.54,13.54,0,0,1-8.4-5c-.8-1-1.17-1.73-1.24-1.69a5.41,5.41,0,0,0,1,1.89,12.28,12.28,0,0,0,3.77,3.48,12.12,12.12,0,0,0,4.87,1.63A5.5,5.5,0,0,0,274.41,95.22Z" style="fill:#e0e0e0"></path><path d="M274,98.92c0-.08-.85-.24-2.16-.7a17.22,17.22,0,0,1-4.74-2.62,17,17,0,0,1-3.67-4,22.18,22.18,0,0,0-1.2-1.93,6.9,6.9,0,0,0,.91,2.11,15,15,0,0,0,8.59,6.74A6.73,6.73,0,0,0,274,98.92Z" style="fill:#e0e0e0"></path><path d="M224.55,84.84a2.47,2.47,0,0,0,.31,1.3,6,6,0,0,0,2,2.52,6.1,6.1,0,0,0,3,1.13,2.34,2.34,0,0,0,1.33-.12,9.82,9.82,0,0,0-1.29-.21,7,7,0,0,1-2.79-1.19,7.08,7.08,0,0,1-2-2.28C224.78,85.3,224.63,84.82,224.55,84.84Z" style="fill:#e0e0e0"></path><path d="M223.52,86.31a2.55,2.55,0,0,0,.31,1.25,7.11,7.11,0,0,0,4.61,4,2.41,2.41,0,0,0,1.28.11A12.1,12.1,0,0,1,226,89.69,12.26,12.26,0,0,1,223.52,86.31Z" style="fill:#e0e0e0"></path><path d="M245.67,113.58a30.12,30.12,0,0,0-4.87,1.82l-1.66.76c.63.93,1.28,2.45,2.21,2.9a3.36,3.36,0,0,0,3.31-.22,3.86,3.86,0,0,0,1.09-2.43A12.77,12.77,0,0,0,245.67,113.58Z" style="fill:#ff9a6c"></path><path d="M239.82,117.27s.14.23.41.6a2.84,2.84,0,0,0,1.52,1.06,3.56,3.56,0,0,0,2.68-.33,3.46,3.46,0,0,0,1.2-3,8.53,8.53,0,0,0-.32-2l.34.16c-1.91.76-3.58,1.4-4.77,1.83a9.78,9.78,0,0,1-1.95.62,8.91,8.91,0,0,1,1.83-.92c1.16-.52,2.8-1.22,4.7-2l.26-.11.07.28a8,8,0,0,1,.36,2.19,3.31,3.31,0,0,1-4.51,3.67,2.86,2.86,0,0,1-1.58-1.3A1.44,1.44,0,0,1,239.82,117.27Z" style="fill:#263238"></path><path d="M326.87,263.83a2.92,2.92,0,0,1-.42,2.06c-1.44,2.27-5,8-5.13,9.31-.18,1.71-.36,5.56,0,6.28s3.95,1.26,3.95,1.26-.45,2.87.9,4,7.26-1.25,7.26-1.25a40.69,40.69,0,0,0,5.12-1.08s3.49.45,4-2.6-1.61-13.1-1.7-15.61-1.88-8.7-1.88-8.7l-12.79,2.21Z" style="fill:#ffbf9d"></path><path d="M329.8,277c.08.14-1.33,1-2.61,2.49s-1.92,3-2.06,2.95A7.71,7.71,0,0,1,329.8,277Z" style="fill:#ff9a6c"></path><path d="M328.41,279.12c0-.05.39-.07,1,.11a5.52,5.52,0,0,1,2.29,1.29l1.54,1.43-1.83-1a1.71,1.71,0,0,0-2.52,1.14l-.32,1.5-.17-1.51a3,3,0,0,0-.42-1.34,1.32,1.32,0,0,0-.83-.6,1.55,1.55,0,0,0-1,.14s0-.12.19-.25a1.11,1.11,0,0,1,.82-.19,1.58,1.58,0,0,1,1.13.66,3.39,3.39,0,0,1,.56,1.51h-.49a2.24,2.24,0,0,1,1.13-1.54,2.18,2.18,0,0,1,2.12.07l-.29.38A9.17,9.17,0,0,0,328.41,279.12Z" style="fill:#ff9a6c"></path><path d="M339.64,280.53c.07,0,.17.24.26.67a4.14,4.14,0,0,1,0,1.74,2.46,2.46,0,0,1-1,1.51c-.4.26-.71.25-.72.19s.22-.19.49-.48a2.87,2.87,0,0,0,.69-1.33C339.64,281.64,339.46,280.54,339.64,280.53Z" style="fill:#ff9a6c"></path><path d="M154.2,133.67a31,31,0,0,0,4.83,9.52l3.64,2.55.47,7.74L177,147.56l-.4-7.7-.88-10.33-9-7.74Z" style="fill:#ffbf9d"></path><path d="M194.15,111.45l-6.53,15.48-3.88-.78-23.39,22-7.94-13.09s14.23-7.41,16.57-12.84-.12-5.16-.12-5.16l5.56-9.6Z" style="fill:#263238"></path><path d="M183.61,91.84s-7.8-1.82-20.55-9.76A112.88,112.88,0,0,1,143,65.75a4.24,4.24,0,0,0-5.89-.21c-2.58,2.39-6,8.24-9.3,22.81-5.81,25.7-.42,30.24,1.71,29.74s16.06-5.87,25.36-6.76,23.66,1.1,23.66,1.1Z" style="fill:#e0e0e0"></path><path d="M183.61,91.84s0,.11-.07.34l-.24,1c-.22.94-.53,2.29-.94,4-.86,3.56-2.1,8.73-3.66,15.23l0,.14-.15,0c-4.08-.51-8.74-1-13.88-1.19-2.57-.1-5.26-.14-8,0a50.54,50.54,0,0,0-8.54,1.34c-5.83,1.33-11.83,3.42-18.17,5.5l-.31.08-.37,0a2.7,2.7,0,0,1-.7-.12c-.21-.11-.42-.21-.61-.33l-.51-.44a6.91,6.91,0,0,1-1.33-2.26,17.63,17.63,0,0,1-1-5.09,53.48,53.48,0,0,1,.46-10.55l.33-2.35c.11-.78.26-1.55.39-2.32.26-1.55.57-3.07.9-4.58.61-3,1.35-6,2.15-8.85a72.83,72.83,0,0,1,2.85-8.33,25.33,25.33,0,0,1,4.32-7.28,5,5,0,0,1,1.69-1.28,4.25,4.25,0,0,1,2.08-.36,4.42,4.42,0,0,1,2,.61,7,7,0,0,1,1.52,1.32c1.82,1.84,3.66,3.57,5.47,5.18a112.63,112.63,0,0,0,10.62,8.39,109.88,109.88,0,0,0,17.07,9.58c2.12.93,3.81,1.56,5,2l1.32.44.45.14a1.83,1.83,0,0,1-.47-.09c-.3-.08-.75-.2-1.33-.39-1.17-.36-2.87-1-5-1.86A105.06,105.06,0,0,1,159.6,80a111.24,111.24,0,0,1-10.69-8.36c-1.83-1.62-3.68-3.35-5.51-5.19A6.88,6.88,0,0,0,142,65.24a4.16,4.16,0,0,0-1.79-.55,4.08,4.08,0,0,0-3.39,1.51,25,25,0,0,0-4.2,7.14,71.25,71.25,0,0,0-2.81,8.28c-.81,2.86-1.54,5.81-2.15,8.82-.32,1.51-.63,3-.88,4.56-.13.77-.28,1.54-.4,2.31s-.21,1.56-.32,2.34a52.51,52.51,0,0,0-.46,10.44,17,17,0,0,0,1,5,6.35,6.35,0,0,0,1.21,2.08l.44.38c.16.1.33.18.49.27a1.63,1.63,0,0,0,1.07,0c6.29-2,12.35-4.15,18.21-5.47a51,51,0,0,1,8.62-1.32c2.8-.15,5.5-.1,8.08,0,5.15.24,9.81.73,13.91,1.27l-.19.13c1.63-6.44,2.92-11.56,3.81-15.09.45-1.75.79-3.1,1-4l.28-1.05A2.24,2.24,0,0,1,183.61,91.84Z" style="fill:#263238"></path><polygon points="204.8 112.21 199.77 111.72 202.29 105.03 206.6 107.02 204.8 112.21" style="fill:#61BFC3"></polygon><path d="M202.92,104.33l-2,5.22-1.07,2.84a7.84,7.84,0,0,1-9.71,4.71l-20.55-4.4,6.88-25.8,20.91,6.4A9.06,9.06,0,0,1,202.92,104.33Z" style="fill:#61BFC3"></path><g style="opacity:0.30000000000000004"><path d="M129.56,89.62c-3,13.7-3,25.34.09,26s8-9.89,11-23.58,3-25.34-.1-26S132.56,75.93,129.56,89.62Z"></path></g><path d="M142.1,84s-7.4-2.67-9.11,6.92,5.48,9.59,5.48,9.59A60.36,60.36,0,0,0,142.1,84Z" style="fill:#fff"></path><path d="M181.09,96.55A66.67,66.67,0,0,0,189,99a71.06,71.06,0,0,0,8.05,1.94,69,69,0,0,0-7.91-2.43A71.06,71.06,0,0,0,181.09,96.55Z" style="fill:#263238"></path><path d="M180.34,99.39a67.24,67.24,0,0,0,7.92,2.43,70.5,70.5,0,0,0,8.05,1.94,70.39,70.39,0,0,0-7.92-2.43A70.5,70.5,0,0,0,180.34,99.39Z" style="fill:#263238"></path><path d="M179.59,102.23a68,68,0,0,0,7.92,2.43,70.5,70.5,0,0,0,8.05,1.94,68.46,68.46,0,0,0-7.92-2.42A69.41,69.41,0,0,0,179.59,102.23Z" style="fill:#263238"></path><path d="M178.84,105.07a68,68,0,0,0,7.92,2.43,71.06,71.06,0,0,0,8.05,1.94,68.46,68.46,0,0,0-7.92-2.42A68.88,68.88,0,0,0,178.84,105.07Z" style="fill:#263238"></path><path d="M171.87,128.83l-2.79-6.26a3,3,0,0,0-4.32-1.44,2.27,2.27,0,0,0-1.09,2.22s-4.54-1.18-3.79,3.08c0,0-3.31-.14-3,2.9,0,0-4.05-.67-3.52,3.26s5.58,5.7,6.88,5.15c0,0,1.39-.46.66-2.66,0,0,3.57,4.26,5.59,3.23s.11-2.92.11-2.92,1.39,1.23,2.6.62-.54-4.94-.54-4.94a3.56,3.56,0,0,0,2.44.09C172.16,130.67,171.87,128.83,171.87,128.83Z" style="fill:#ffbf9d"></path><path d="M160.89,135.08c-.13.07-.92-1.26-2.16-2.72a9.87,9.87,0,0,1-2-2.88,15.25,15.25,0,0,1,2.42,2.55A7.13,7.13,0,0,1,160.89,135.08Z" style="fill:#ff9a6c"></path><path d="M160.07,126.26a20.78,20.78,0,0,1,3.85,4.36,19.78,19.78,0,0,1,2.9,5c-.13.07-1.46-2.16-3.32-4.74S160,126.36,160.07,126.26Z" style="fill:#ff9a6c"></path><path d="M168.94,131.54a36.56,36.56,0,0,0-2.14-4.41,36.3,36.3,0,0,0-3.15-3.76,9.21,9.21,0,0,1,3.58,3.48A9.09,9.09,0,0,1,168.94,131.54Z" style="fill:#ff9a6c"></path><path d="M182.56,128.8,180.77,127a2.56,2.56,0,0,0-2.29-.7,26.5,26.5,0,0,0-6.38,2.13c-.94.8-.29,2.74,3.25,2.6s.36,0,.36,0-7.54,3.4-5.27,10.1l5.84-.45s6.35-8,6.79-9.44A2.66,2.66,0,0,0,182.56,128.8Z" style="fill:#ffbf9d"></path><path d="M177.1,130.68c0,.08-.79.23-1.93.81a9,9,0,0,0-3.64,3.28,9.11,9.11,0,0,0-1.33,4.72c0,1.28.22,2.06.14,2.09a4.36,4.36,0,0,1-.5-2.08,8.51,8.51,0,0,1,1.24-5,8.65,8.65,0,0,1,3.93-3.34A4.28,4.28,0,0,1,177.1,130.68Z" style="fill:#ff9a6c"></path><path d="M111.69,103.12c0,.14-6.45,2.9-14.51,6.18S82.52,115.13,82.47,115s6.44-2.9,14.51-6.17S111.63,103,111.69,103.12Z" style="fill:#263238"></path><path d="M113.54,87.62c0,.15-10.66-.75-23.78-2S66,83.25,66,83.11s10.66.75,23.79,2S113.56,87.48,113.54,87.62Z" style="fill:#263238"></path><path d="M115.06,71.74c-.09.11-4-3-8.66-6.86S98,57.74,98.07,57.63s4,2.95,8.66,6.85S115.15,71.63,115.06,71.74Z" style="fill:#263238"></path><path d="M142,67.43a2.05,2.05,0,0,1,.09.48c.05.39.11.85.18,1.41s.16,1.36.21,2.23.14,1.86.15,3a72.6,72.6,0,0,1-.19,7.72,80.58,80.58,0,0,1-1.34,9.37,79.57,79.57,0,0,1-2.51,9.12,73.06,73.06,0,0,1-2.91,7.16c-.45,1-.93,1.88-1.32,2.66s-.77,1.43-1.08,2l-.73,1.22c-.17.27-.26.41-.28.4a2,2,0,0,1,.19-.46c.18-.34.39-.75.64-1.26s.63-1.2,1-2,.82-1.67,1.24-2.68c.91-2,1.86-4.42,2.79-7.16a84.65,84.65,0,0,0,2.46-9.08,86.51,86.51,0,0,0,1.37-9.3c.24-2.88.33-5.48.3-7.67,0-1.1-.05-2.09-.07-3s-.07-1.61-.12-2.22-.06-1-.08-1.41A1.73,1.73,0,0,1,142,67.43Z" style="fill:#263238"></path><path d="M179.73,145.83l1,21.2.69,3.29,19.5-10.17s4.78-8.67,7.22-12.83,5.05-5.36,5.05-5.36l-6.46,45.18s-19.84,8.39-25,9.68-16.61,5.87-17.9-7-5-35.23-5-35.23Z" style="fill:#263238"></path><path d="M177.1,188c-.07-.07.72-.86,1.71-2.32a18.79,18.79,0,0,0,3-13.14c-.26-1.75-.63-2.8-.54-2.83s.15.24.33.71a12.29,12.29,0,0,1,.57,2.06,15.9,15.9,0,0,1,.31,3.15,17.72,17.72,0,0,1-1.71,7.54,16.52,16.52,0,0,1-1.64,2.72,12.25,12.25,0,0,1-1.41,1.61A2.7,2.7,0,0,1,177.1,188Z" style="fill:#455a64"></path><path d="M264.41,191.83c.11-2.74,4.33-22.33,4.33-22.68S264.57,140,264.57,140l-.93-9-20.23,12.13s-8.61-6.47-8.4-6.81l-4.75,28.54-9.64,89.2s3.3,4,15.93,5.87c15.73,2.3,38.46-5.87,38.46-5.87S264.29,194.56,264.41,191.83Z" style="fill:#e0e0e0"></path><g style="opacity:0.30000000000000004"><path d="M217.54,285.31s3,2.25,4.79-11.27,7.18-70.25,7.18-70.25l3.88-58.72-11.58,34.19Z"></path></g><g style="opacity:0.30000000000000004"><path d="M262.62,241.26s5.31,51.91,7.33,50.9,21.43-8.66,21.43-8.66l-2-16.78Z"></path></g><path d="M264.22,131.83c.7.55,8.72,8.3,8.72,8.3s18.33,2.05,18.85,2.59-1.07,77.15-1.07,77.15l12,55.12-31.51,12.95s-6.4-32.32-9.4-49.79-2.11-22.42-1.75-39.34,4-58.68,4-58.68Z" style="fill:#263238"></path><path d="M261.84,216a7.16,7.16,0,0,1,.07-.82c.07-.53.15-1.33.31-2.34.32-2,.83-5,1.54-8.57,1.41-7.21,3.55-17.12,6-28.05,2-8.76,3.89-16.84,5.44-23.31l.07.21-3.72-3.18-.16-.13.15-.14,3.77-3.55,0,.16c-.76-1.91-1.35-3.43-1.78-4.52-.19-.49-.34-.88-.45-1.19a1.49,1.49,0,0,1-.13-.42,1.59,1.59,0,0,1,.2.39c.13.3.3.69.52,1.17q.69,1.62,1.9,4.46l0,.09-.07.06-3.71,3.62v-.28l3.76,3.14.1.08,0,.13c-1.49,6.5-3.34,14.58-5.34,23.33-2.48,10.92-4.67,20.82-6.17,28-.75,3.59-1.32,6.5-1.7,8.52-.19,1-.3,1.8-.4,2.33A4.18,4.18,0,0,1,261.84,216Z" style="fill:#455a64"></path><path d="M290.72,142.43S298,144,301.58,152.52c1.59,3.74,20.05,43.64,23.9,51.59S342,257,342,257l-21.55,3.71-11.9-45.56-19.71-35.71,1.9-17.77Z" style="fill:#263238"></path><path d="M294.05,159.59c.14,0-.36,6.63-1.11,14.79s-1.49,14.76-1.64,14.74.36-6.63,1.12-14.79S293.91,159.57,294.05,159.59Z" style="fill:#455a64"></path><polygon points="321.64 260.52 322.19 263.04 341.7 259.57 341.14 257.16 321.64 260.52" style="fill:#e0e0e0"></polygon><path d="M302.75,275a2.65,2.65,0,0,1-.59.29l-1.74.77-6.55,2.76-22.54,9.36-.28.12L271,288c-.68-3.64-1.4-7.54-2.14-11.56-2.27-12.43-4.32-23.69-5.81-31.88-.72-4-1.3-7.35-1.71-9.68-.18-1.11-.33-2-.43-2.63,0-.28-.08-.5-.1-.69a.87.87,0,0,1,0-.24,1,1,0,0,1,.07.23l.15.68c.13.64.31,1.51.53,2.62.45,2.32,1.09,5.6,1.87,9.64,1.53,8.19,3.63,19.43,6,31.86.74,4,1.45,7.92,2.12,11.56l-.34-.18,22.61-9.19,6.6-2.63,1.78-.69A4.66,4.66,0,0,1,302.75,275Z" style="fill:#455a64"></path><polygon points="238.38 150.69 240.9 154.4 244.68 154.4 246.69 150.69 244.47 145.99 241.48 146.15 238.38 150.69" style="fill:#61BFC3"></polygon><path d="M263,143.13a4.73,4.73,0,0,1-.89.68l-2.53,1.69c-2.15,1.4-5.14,3.31-8.46,5.39l-3.11,2-.22.13-.13-.21a42.63,42.63,0,0,1-3.26-6.82c-.35-.87-.61-1.57-.78-2.05a2.51,2.51,0,0,1-.23-.76,20.49,20.49,0,0,1,1.3,2.69,54.74,54.74,0,0,0,3.39,6.67l-.34-.08,3.11-2c3.31-2.08,6.33-3.94,8.53-5.26l2.62-1.55A4.61,4.61,0,0,1,263,143.13Z" style="fill:#455a64"></path><path d="M234.06,146.91a7.11,7.11,0,0,1,1.1,1.32c.64.87,1.53,2.1,2.53,3.53h-.4c.41-.57.84-1.19,1.27-1.85,1.28-1.9,2.42-3.64,3.3-4.87a9.49,9.49,0,0,1,1.55-1.9,14.44,14.44,0,0,1-1.24,2.11c-.8,1.27-1.89,3-3.17,4.95-.44.66-.88,1.29-1.31,1.86l-.21.28-.2-.29c-1-1.45-1.81-2.72-2.38-3.63A6.45,6.45,0,0,1,234.06,146.91Z" style="fill:#455a64"></path><polygon points="240.9 154.4 229.51 240.39 236.76 255.41 248.99 239.58 244.68 154.4 240.9 154.4" style="fill:#61BFC3"></polygon><path d="M214.21,283.67a3.21,3.21,0,0,0,4.79-2.52l6.26-64.23,9.45-79.36-3.33,2.83s-17.76,1.28-18.19,1.57-4,11.17-5.56,24.63-.37,55.32-.37,55.32l-6.69,52.71Z" style="fill:#263238"></path><path d="M206.54,155a6.32,6.32,0,0,1,.11,1.4c0,1,.07,2.28.12,3.81.07,3.22.13,7.67.17,12.58s.05,9.36,0,12.58c0,1.53,0,2.81-.05,3.81a6.53,6.53,0,0,1-.09,1.4,7.15,7.15,0,0,1-.11-1.39c0-1-.07-2.28-.11-3.82-.08-3.22-.14-7.67-.18-12.58s0-9.36,0-12.58c0-1.54,0-2.82,0-3.82A8.54,8.54,0,0,1,206.54,155Z" style="fill:#455a64"></path><path d="M223.58,218.51a6.53,6.53,0,0,1,0-.87c0-.57.06-1.4.07-2.48,0-2.16.06-5.28,0-9.13,0-7.71-.22-18.36-.49-30.12-.19-8-.38-15.53-.53-21.89v-.14l.12-.06,4.31-2.32-.07.29c-1.07-1.56-2-3-2.92-4.28l-.09-.12.11-.1,5.68-5.38,1.54-1.42a4.43,4.43,0,0,1,.55-.47,3.23,3.23,0,0,1-.48.54l-1.48,1.49-5.57,5.49,0-.22,3,4.24.13.18-.2.11L223,154.21l.11-.2c.22,6.34.43,13.85.61,21.89.27,11.76.4,22.42.34,30.13,0,3.86-.1,7-.2,9.13,0,1.08-.13,1.92-.17,2.48A4.33,4.33,0,0,1,223.58,218.51Z" style="fill:#455a64"></path><path d="M221.56,255.09a1.83,1.83,0,0,1,0,.49c0,.37-.08.83-.14,1.38-.15,1.28-.35,3-.59,5.08-.52,4.29-1.28,10.2-2.15,16.73-.31,2.3-.61,4.52-.88,6.58l0,.36-.32-.18-10.76-6.07-3.09-1.8a6.77,6.77,0,0,1-1.09-.7,7.55,7.55,0,0,1,1.17.55l3.17,1.68,10.84,5.91-.37.18c.27-2.06.56-4.28.87-6.58.86-6.53,1.68-12.43,2.3-16.71.31-2.07.56-3.78.75-5.05.09-.55.17-1,.23-1.38A1.6,1.6,0,0,1,221.56,255.09Z" style="fill:#455a64"></path><polygon points="160.07 154.04 160.3 150.25 177.61 144.1 178.57 146.31 160.07 154.04" style="fill:#e0e0e0"></polygon><path d="M220.62,141.16s5.19,74.1,75.4,88.63l.67,17.43s-46.4-.78-72.82-42.32c-19.9-31.28-13.14-62.63-13.14-62.63A18.46,18.46,0,0,1,220.62,141.16Z" style="fill:#455a64"></path><path d="M219,174.85l-.67-3.75-1.87-.44-.25-1.43,8.1,2,.24,1.37-6.9,4.72-.26-1.45Zm1-.66,3-2-3.53-.83Z" style="fill:#fff"></path><path d="M220.32,185.6,225.1,184l-4.75-1-.2-.6,3.1-3.68-4.72,1.58L218.1,179l7.21-2.43.37,1.11-3.82,4.47,5.73,1.21.37,1.1-7.21,2.43Z" style="fill:#fff"></path><path d="M226.75,194.46c-1.17.59-2.31,0-3.19-1.74l-1.7-3.38,6.81-3.42,1.6,3.19c.82,1.64.57,2.86-.51,3.4a1.84,1.84,0,0,1-1.94-.12A1.86,1.86,0,0,1,226.75,194.46Zm-.52-1.34c.68-.34.73-1,.25-2l-1-2-2,1,1,2C225,193.1,225.55,193.47,226.23,193.12Zm2.08-5.44-1.88.95.9,1.79c.44.87,1,1.21,1.63.9s.69-1,.25-1.85Z" style="fill:#fff"></path><path d="M230.16,200.32l-2.1-3.18-1.88.34-.8-1.21,8.24-1.34.77,1.17-4.47,7.06-.81-1.24Zm.67-1,2-3-3.57.65Z" style="fill:#fff"></path><path d="M231.06,203.23l1.16-.31a4.16,4.16,0,0,0,.94,2.47c.75.92,1.39,1,1.83.68,1.27-1-2.42-3.86-.23-5.65,1-.78,2.38-.68,3.7.94a4.78,4.78,0,0,1,1.08,2.39l-1.13.35a4.24,4.24,0,0,0-.87-2c-.74-.91-1.4-1-1.84-.62-1.26,1,2.42,3.85.25,5.62-.94.77-2.38.67-3.7-1A4.86,4.86,0,0,1,231.06,203.23Z" style="fill:#fff"></path><path d="M235.64,208.77l1.13-.42a4.28,4.28,0,0,0,1.15,2.39c.83.85,1.48.91,1.89.52,1.17-1.15-2.75-3.64-.72-5.61.88-.86,2.31-.89,3.76.61a4.82,4.82,0,0,1,1.29,2.29L243,209a4.2,4.2,0,0,0-1-1.92c-.81-.84-1.48-.86-1.89-.46-1.16,1.13,2.74,3.63.74,5.58-.88.85-2.31.86-3.77-.63A4.9,4.9,0,0,1,235.64,208.77Z" style="fill:#fff"></path><path d="M245.51,216.82l-2.88-2.49-1.72.84-1.11-.95,7.58-3.52,1.05.91-2.38,8-1.12-1Zm.37-1.15,1.09-3.46-3.25,1.59Z" style="fill:#fff"></path><path d="M251.6,214.25l2.7,1.95c2,1.44,2.48,3.66,1.15,5.52s-3.59,2.1-5.6.66l-2.7-1.94Zm-1.1,7.12a2.62,2.62,0,1,0,3.05-4.24l-1.5-1.08L249,220.29Z" style="fill:#fff"></path><path d="M256.3,222.27a4.11,4.11,0,1,1,1.5,5.47A3.89,3.89,0,0,1,256.3,222.27Zm5.81,3.49a2.68,2.68,0,1,0-3.67.92A2.59,2.59,0,0,0,262.11,225.76Z" style="fill:#fff"></path><path d="M267.42,232.87l-.37-2.7a2.06,2.06,0,0,1-.26-.12l-1.53-.78-1,2L263,230.6l3.46-6.78,2.79,1.43c1.78.91,2.42,2.38,1.66,3.88a2.43,2.43,0,0,1-2.54,1.4l.42,3Zm1.22-6.59-1.47-.75-1.38,2.7,1.47.75c1.1.57,1.93.36,2.37-.5S269.74,226.85,268.64,226.28Z" style="fill:#fff"></path><rect x="267.64" y="173.09" width="14.86" height="9.97" style="fill:#61BFC3"></rect><rect x="267.64" y="177.94" width="14.93" height="5.11" style="fill:#fff"></rect><path d="M282.5,183.05a4.71,4.71,0,0,1-.05-.75c0-.54,0-1.21-.06-2,0-1.81-.07-4.25-.12-7.19l.23.22-14.86.06c-.07.06.53-.54.28-.28h0v2.6c0,.87,0,1.72,0,2.55,0,1.67,0,3.27,0,4.79l-.26-.26c4.32,0,8,.08,10.63.13l3.08.07a9.41,9.41,0,0,1,1.15.06,6.33,6.33,0,0,1-1,.06l-3,.07c-2.61,0-6.37.11-10.8.13h-.26v-.26c0-1.52,0-3.12,0-4.79,0-.83,0-1.68,0-2.55v-2.6h0l.29-.29,14.86.06h.23v.23c0,3.08-.08,5.6-.12,7.33,0,.79,0,1.45-.06,2A3,3,0,0,1,282.5,183.05Z" style="fill:#455a64"></path></g></svg>
