<svg xmlns="http://www.w3.org/2000/svg" viewBox="0 0 750 500"><g id="freepik--background-complete--inject-11"><g><rect x="47.07" y="159.72" width="71.23" height="71.23" rx="2.59" ry="2.59" style="fill:#ebebeb;"></rect><g style="opacity:.4;"><path d="M111.43,190.37c-.03-.3-.07-.63-.27-.85-.41-.45-1.18-.21-1.63,.2-1.44,1.31-1.35,3.55-1.23,5.49,.35,5.66,.06,11.37-.86,16.97-.19,1.16-.42,2.35-1.04,3.35-.51,.81-1.25,1.45-2.01,2.03-2.47,1.85-5.34,3.17-8.35,3.83-1.76,.39-3.55,.55-5.34,.72-6.99,.65-13.97,1.29-20.96,1.94-1.59,.15-4.07,.92-4.94,2.27,14.01,.5,28.04,.41,42.05-.27,.68-.03,1.39-.07,2-.39,.77-.4,1.27-1.18,1.63-1.96,1.05-2.27,1.26-4.83,1.4-7.33,.5-8.65,.35-17.35-.45-25.98Z" style="fill:#fff;"></path></g><path d="M51.23,170.39c.14,0,.26,10.83,.26,24.19s-.12,24.19-.26,24.19-.26-10.83-.26-24.19,.12-24.19,.26-24.19Z" style="fill:#fff;"></path><path d="M51.47,167.74c.14,0,.26,.27,.26,.6s-.12,.6-.26,.6-.26-.27-.26-.6,.12-.6,.26-.6Z" style="fill:#fff;"></path></g><g><rect x="120.3" y="86.49" width="71.23" height="71.23" rx="2.59" ry="2.59" style="fill:#ebebeb;"></rect><g style="opacity:.4;"><path d="M184.66,117.14c-.03-.3-.07-.63-.27-.85-.41-.45-1.18-.21-1.63,.2-1.44,1.31-1.35,3.55-1.23,5.49,.35,5.66,.06,11.37-.86,16.97-.19,1.16-.42,2.35-1.04,3.35-.51,.81-1.25,1.45-2.01,2.03-2.47,1.85-5.34,3.17-8.35,3.83-1.76,.39-3.55,.55-5.34,.72-6.99,.65-13.97,1.29-20.96,1.94-1.59,.15-4.07,.92-4.94,2.27,14.01,.5,28.04,.41,42.05-.27,.68-.03,1.39-.07,2-.39,.77-.4,1.27-1.18,1.63-1.96,1.05-2.27,1.26-4.83,1.4-7.33,.5-8.65,.34-17.35-.45-25.98Z" style="fill:#fff;"></path></g><path d="M124.46,97.16c.14,0,.26,10.83,.26,24.19s-.12,24.19-.26,24.19-.26-10.83-.26-24.19,.12-24.19,.26-24.19Z" style="fill:#fff;"></path><path d="M124.7,94.51c.14,0,.26,.27,.26,.6s-.12,.6-.26,.6-.26-.27-.26-.6,.12-.6,.26-.6Z" style="fill:#fff;"></path></g><g><rect x="47.07" y="86.49" width="71.23" height="71.23" rx="2.59" ry="2.59" style="fill:#ebebeb;"></rect><g style="opacity:.4;"><path d="M111.43,117.14c-.03-.3-.07-.63-.27-.85-.41-.45-1.18-.21-1.63,.2-1.44,1.31-1.35,3.55-1.23,5.49,.35,5.66,.06,11.37-.86,16.97-.19,1.16-.42,2.35-1.04,3.35-.51,.81-1.25,1.45-2.01,2.03-2.47,1.85-5.34,3.17-8.35,3.83-1.76,.39-3.55,.55-5.34,.72-6.99,.65-13.97,1.29-20.96,1.94-1.59,.15-4.07,.92-4.94,2.27,14.01,.5,28.04,.41,42.05-.27,.68-.03,1.39-.07,2-.39,.77-.4,1.27-1.18,1.63-1.96,1.05-2.27,1.26-4.83,1.4-7.33,.5-8.65,.35-17.35-.45-25.98Z" style="fill:#fff;"></path></g><path d="M51.23,97.16c.14,0,.26,10.83,.26,24.19s-.12,24.19-.26,24.19-.26-10.83-.26-24.19,.12-24.19,.26-24.19Z" style="fill:#fff;"></path><path d="M51.47,94.51c.14,0,.26,.27,.26,.6s-.12,.6-.26,.6-.26-.27-.26-.6,.12-.6,.26-.6Z" style="fill:#fff;"></path></g><g><rect x="195.15" y="86.49" width="71.23" height="71.23" rx="2.59" ry="2.59" style="fill:#ebebeb;"></rect><g style="opacity:.4;"><path d="M259.5,117.14c-.03-.3-.07-.63-.27-.85-.41-.45-1.18-.21-1.63,.2-1.44,1.31-1.35,3.55-1.23,5.49,.35,5.66,.06,11.37-.86,16.97-.19,1.16-.42,2.35-1.04,3.35-.51,.81-1.25,1.45-2.01,2.03-2.47,1.85-5.34,3.17-8.35,3.83-1.76,.39-3.55,.55-5.34,.72-6.99,.65-13.97,1.29-20.96,1.94-1.59,.15-4.07,.92-4.94,2.27,14.01,.5,28.04,.41,42.05-.27,.68-.03,1.39-.07,2-.39,.77-.4,1.27-1.18,1.63-1.96,1.05-2.27,1.26-4.83,1.4-7.33,.5-8.65,.34-17.35-.45-25.98Z" style="fill:#fff;"></path></g><path d="M199.3,97.16c.14,0,.26,10.83,.26,24.19s-.12,24.19-.26,24.19-.26-10.83-.26-24.19,.12-24.19,.26-24.19Z" style="fill:#fff;"></path><path d="M199.54,94.51c.14,0,.26,.27,.26,.6s-.12,.6-.26,.6-.26-.27-.26-.6,.12-.6,.26-.6Z" style="fill:#fff;"></path></g><g><rect x="47.07" y="233.69" width="71.23" height="71.23" rx="2.59" ry="2.59" style="fill:#ebebeb;"></rect><g style="opacity:.4;"><path d="M111.43,264.33c-.03-.3-.07-.63-.27-.85-.41-.45-1.18-.21-1.63,.2-1.44,1.31-1.35,3.55-1.23,5.49,.35,5.66,.06,11.37-.86,16.96-.19,1.16-.42,2.35-1.04,3.35-.51,.81-1.25,1.45-2.01,2.03-2.47,1.85-5.34,3.17-8.35,3.83-1.76,.39-3.55,.55-5.34,.72-6.99,.65-13.97,1.29-20.96,1.94-1.59,.15-4.07,.92-4.94,2.27,14.01,.5,28.04,.41,42.05-.27,.68-.03,1.39-.07,2-.39,.77-.4,1.27-1.18,1.63-1.96,1.05-2.27,1.26-4.83,1.4-7.33,.5-8.65,.35-17.35-.45-25.98Z" style="fill:#fff;"></path></g><path d="M51.23,244.35c.14,0,.26,10.83,.26,24.19s-.12,24.19-.26,24.19-.26-10.83-.26-24.19,.12-24.19,.26-24.19Z" style="fill:#fff;"></path><path d="M51.47,241.7c.14,0,.26,.27,.26,.6s-.12,.6-.26,.6-.26-.27-.26-.6,.12-.6,.26-.6Z" style="fill:#fff;"></path></g><g><rect x="47.07" y="307.65" width="71.23" height="71.23" rx="2.59" ry="2.59" style="fill:#ebebeb;"></rect><g style="opacity:.4;"><path d="M111.43,338.3c-.03-.3-.07-.63-.27-.85-.41-.45-1.18-.21-1.63,.2-1.44,1.31-1.35,3.55-1.23,5.49,.35,5.66,.06,11.37-.86,16.97-.19,1.16-.42,2.35-1.04,3.35-.51,.81-1.25,1.45-2.01,2.03-2.47,1.85-5.34,3.17-8.35,3.83-1.76,.39-3.55,.55-5.34,.72-6.99,.65-13.97,1.29-20.96,1.94-1.59,.15-4.07,.92-4.94,2.27,14.01,.5,28.04,.41,42.05-.27,.68-.03,1.39-.07,2-.39,.77-.4,1.27-1.18,1.63-1.96,1.05-2.27,1.26-4.83,1.4-7.33,.5-8.65,.35-17.35-.45-25.98Z" style="fill:#fff;"></path></g><path d="M51.23,318.31c.14,0,.26,10.83,.26,24.19s-.12,24.19-.26,24.19-.26-10.83-.26-24.19,.12-24.19,.26-24.19Z" style="fill:#fff;"></path><ellipse cx="51.47" cy="316.27" rx=".26" ry=".6" style="fill:#fff;"></ellipse></g><g><rect x="47.07" y="381.61" width="71.23" height="71.23" rx="2.59" ry="2.59" style="fill:#ebebeb;"></rect><g style="opacity:.4;"><path d="M111.43,412.26c-.03-.3-.07-.63-.27-.85-.41-.45-1.18-.21-1.63,.2-1.44,1.31-1.35,3.55-1.23,5.49,.35,5.66,.06,11.37-.86,16.97-.19,1.16-.42,2.35-1.04,3.35-.51,.81-1.25,1.45-2.01,2.03-2.47,1.85-5.34,3.17-8.35,3.83-1.76,.39-3.55,.55-5.34,.72-6.99,.65-13.97,1.29-20.96,1.94-1.59,.15-4.07,.92-4.94,2.27,14.01,.5,28.04,.41,42.05-.27,.68-.03,1.39-.07,2-.39,.77-.4,1.27-1.18,1.63-1.96,1.05-2.27,1.26-4.83,1.4-7.33,.5-8.65,.35-17.35-.45-25.98Z" style="fill:#fff;"></path></g><path d="M51.23,392.28c.14,0,.26,10.83,.26,24.19s-.12,24.19-.26,24.19-.26-10.83-.26-24.19,.12-24.19,.26-24.19Z" style="fill:#fff;"></path><ellipse cx="51.47" cy="390.23" rx=".26" ry=".6" style="fill:#fff;"></ellipse></g><g><rect x="435.74" y="45.62" width="96.96" height="140.54" style="fill:#e0e0e0;"></rect><rect x="430.88" y="45.62" width="96.96" height="140.54" style="fill:#f5f5f5;"></rect><g><rect x="442.93" y="60.84" width="72.87" height="110.1" style="fill:#fff;"></rect><path d="M515.79,170.93s0-.19-.01-.54c0-.36,0-.88-.01-1.56,0-1.38-.02-3.41-.03-6.04-.02-5.28-.04-12.97-.07-22.68-.03-19.41-.07-46.9-.12-79.28l.24,.24c-22.26,0-46.93,.01-72.86,.02h0l.26-.26c-.02,41.53-.04,79.83-.05,110.1l-.21-.21c22.19,.05,40.38,.08,53.04,.11,6.33,.02,11.28,.04,14.65,.05,1.68,.01,2.96,.02,3.85,.02,.87,0,1.33,.02,1.33,.02,0,0-.43,.01-1.29,.02-.87,0-2.15,.01-3.81,.02-3.37,.01-8.3,.03-14.61,.05-12.69,.03-30.92,.06-53.17,.11h-.21v-.21c-.01-30.27-.03-68.56-.05-110.1v-.26h.27c25.93,0,50.6,.02,72.86,.02h.24v.24c-.05,32.44-.09,59.98-.12,79.44-.03,9.69-.05,17.36-.06,22.62-.01,2.61-.02,4.62-.03,5.99,0,.67-.01,1.18-.01,1.53,0,.34-.01,.51-.01,.51Z" style="fill:#e0e0e0;"></path></g><path d="M528.11,45.62c.06,.04-.6,1-1.73,2.51-1.13,1.51-2.73,3.55-4.55,5.77-1.83,2.22-3.53,4.18-4.79,5.57-1.26,1.39-2.08,2.22-2.13,2.18-.06-.05,.66-.97,1.85-2.42,1.3-1.58,2.9-3.52,4.67-5.66,1.77-2.15,3.36-4.09,4.66-5.67,1.2-1.45,1.96-2.33,2.02-2.28Z" style="fill:#e0e0e0;"></path><g><path d="M516.16,170.58c3.62,5.75,7.89,11.1,12.71,15.89" style="fill:#fff;"></path><path d="M528.87,186.47s-.91-.7-2.22-2.02c-1.3-1.31-3.03-3.2-4.79-5.41-1.76-2.21-3.23-4.31-4.22-5.87-.99-1.56-1.54-2.57-1.48-2.6,.07-.04,.72,.9,1.79,2.4,1.07,1.5,2.57,3.55,4.32,5.75,1.75,2.19,3.43,4.11,4.65,5.48,1.23,1.37,2,2.22,1.94,2.27Z" style="fill:#e0e0e0;"></path></g><g><path d="M430.87,186.04c4.23-5.22,8.47-10.45,12.7-15.67" style="fill:#fff;"></path><path d="M443.57,170.37c.11,.09-2.64,3.67-6.14,8-3.51,4.33-6.44,7.76-6.56,7.67-.11-.09,2.64-3.67,6.15-8,3.51-4.33,6.44-7.76,6.55-7.67Z" style="fill:#e0e0e0;"></path></g><path d="M430.88,45.62c.11-.09,2.87,3.21,6.16,7.37,3.29,4.16,5.87,7.61,5.75,7.7-.11,.09-2.87-3.21-6.16-7.37-3.29-4.16-5.86-7.61-5.75-7.7Z" style="fill:#e0e0e0;"></path><rect x="468.69" y="83.19" width="24.4" height="69.27" style="fill:#e0e0e0;"></rect></g><g><g><path d="M567.76,307.63c-6.73-4.23-14.44-6.88-22.34-7.69-3.65-.38-7.64-.27-10.57,1.94-.62,.47-1.23,1.16-1.09,1.93,.1,.56,.58,.97,1.03,1.32,9.09,6.94,22.84,7.81,32.97,2.5" style="fill:#e0e0e0;"></path><path d="M567.19,307c-5.06-3.95-10.15-7.92-14.43-12.7-4.29-4.78-7.77-10.45-9.05-16.73-.39-1.91-.51-4.09,.72-5.6,11.5,8.98,20.54,20.6,22.76,35.03" style="fill:#e0e0e0;"></path><path d="M567.64,307.55c-.87-6.29-1.18-12.76,.27-18.95,1.45-6.19,4.81-12.11,10.09-15.64,1.99,4.65,1.13,10-.27,14.85-2.16,7.5-5.56,14.65-10.01,21.07" style="fill:#e0e0e0;"></path><path d="M578.92,327.75c-6.85,.83-12.81,4.44-17.92,9.07-5.11,4.63-8.74,10.87-10.25,17.6,6.71-.41,12.41-5.15,16.54-10.46,4.13-5.31,6.99-11.14,11.53-16.1" style="fill:#e0e0e0;"></path><path d="M581.37,330.99c-5.51-13.58-3.52-29.95,5.1-41.81,3.9,13.87,2.47,29.54-5.1,41.81" style="fill:#e0e0e0;"></path><path d="M596.27,348.73c-6.21-.39-12.53,1.09-17.92,4.2-5.39,3.11-9.85,7.82-12.63,13.39-.38,.76-.71,1.72-.21,2.4,.44,.59,1.29,.64,2.03,.6,6.02-.39,11.36-4.01,15.76-8.14,4.4-4.13,8.24-8.89,13.11-12.46" style="fill:#e0e0e0;"></path><path d="M595.79,347.76c-3.2-10.25-3.4-21.43-.57-31.79,1.12-4.09,3-8.4,6.78-10.32,.32-.16,.7-.31,1.04-.18,.32,.12,.51,.45,.66,.76,1.35,2.81,1.74,6.01,1.6,9.12-.14,3.11-.78,6.18-1.43,9.23-1.19,5.64-1.83,11.71-4.92,16.57-.73,1.16-1.38,2.4-1.97,3.64-.59,1.24-.59,1.67-1.13,2.66" style="fill:#e0e0e0;"></path><path d="M635.24,353.64c-2.92-11.12,.18-24.59,7.18-33.7,.52-.67,1.2-1.39,2.04-1.31,1.29,.12,1.62,1.84,1.57,3.13-.51,11.36-4.3,22.55-10.79,31.88" style="fill:#e0e0e0;"></path><path d="M638.79,356.07c13.5,3.51,29,.1,40.23-8.18-6.66-3.37-14.5-4.34-21.78-2.67-7.27,1.66-13.92,4.92-18.45,10.85" style="fill:#e0e0e0;"></path><path d="M641.79,348.67c7.56-12.33,22.06-20.38,36.51-21.11-1.66,5.88-6.49,10.44-11.94,13.2-5.45,2.76-11.53,3.96-17.53,5.13-2.33,.45-5.53,.95-7.04,2.78" style="fill:#e0e0e0;"></path><path d="M635.99,312.76c2.05-7.02,4.11-14.09,4.67-21.38,.56-7.29-.48-14.9-4.26-21.15-7.06,13.67-7.78,29.64-.62,43.27" style="fill:#e0e0e0;"></path><path d="M659.77,300.73c8.26-15.02,25.12-27.01,42.17-28.69-6.58,16.38-24.52,29.04-42.17,28.69" style="fill:#e0e0e0;"></path><path d="M654.58,303.68c12.32,1.88,22.82,9.75,34.33,14.52,2.46,1.02,5.12,1.83,7.76,1.49,2.64-.35,5.25-2.12,5.84-4.72,.49-2.16-.49-4.45-2.04-6.03-1.55-1.58-3.59-2.57-5.64-3.42-12.54-5.22-25.99-5.35-39.2-2.19" style="fill:#e0e0e0;"></path><path d="M647.45,312.32c2.79,.8,3.74,2.24,5.95,4.12,7.49,6.38,16.48,11,26.04,13.37,.99,.25,2.3,.35,2.79-.55,.43-.79-.11-1.74-.67-2.43-4-5.01-9.71-8.43-15.72-10.67-6.01-2.24-11.21-4.93-18.39-4.36" style="fill:#e0e0e0;"></path><path d="M639.4,260.12c10.02,9.35,24.13,14.15,37.78,12.85,.62-.06,1.3-.16,1.72-.62,.95-1.03-.19-2.63-1.3-3.49-11.11-8.66-24.56-12.25-38.2-8.74" style="fill:#e0e0e0;"></path><path d="M648.94,256.63c13.24-9.93,31.41-12.93,47.14-7.78-5.94,5.85-14.17,9-22.46,9.86-8.29,.86-16.59-.06-24.68-2.08" style="fill:#e0e0e0;"></path><path d="M645.15,232.65c-1.09-11.09-.38-19.84-1.15-30.97-.06-.89-.25-1.96-1.09-2.28-1.16-.45-2.13,.98-2.51,2.16-3.3,10.27-1.5,22.04,4.73,30.85" style="fill:#e0e0e0;"></path><path d="M644.35,233.87c7.51-4.65,13.15-10.71,18.36-17.85,3.63-4.96,6.68-10.91,5.86-17-5.09-.1-9.93,2.71-13.25,6.58-3.31,3.87-5.28,8.71-6.75,13.59-1.47,4.88-2.5,9.89-4.22,14.68" style="fill:#e0e0e0;"></path><path d="M662.39,228.86c16.49-6.1,31.87-15.17,45.19-26.65-5.4-2.17-11.58-.87-16.98,1.31-12.33,4.98-22.4,13.38-28.45,25.22" style="fill:#e0e0e0;"></path><path d="M649.42,239.94c8.34,.91,16.82,1.51,25.09,.12,8.14-1.36,15.82-4.58,23.43-7.78,.63-.26,1.32-.58,1.59-1.21,.3-.68-.02-1.51-.57-2-.55-.5-1.28-.74-2-.94-8.26-2.31-17.18-1.23-25.32,1.51-8.13,2.74-14.8,6-22.23,10.3" style="fill:#e0e0e0;"></path><path d="M601.79,260.5c-5.69-11.49-5.32-24.9-.41-36.74,3.46,5.27,3.88,11.99,3.25,18.27-.63,6.28-2.54,12.74-2.67,19.04" style="fill:#e0e0e0;"></path><path d="M579.05,249.04c-14.21-.27-28.42,5.78-38.07,16.22,7.09,1.11,14.4-.72,20.85-3.87,6.45-3.15,12.18-7.57,17.87-11.96" style="fill:#e0e0e0;"></path><path d="M563.76,243.92c-6.95-.56-13.64-1.42-20.32,.62-6.68,2.05-12.77,6.7-15.49,13.14,6.5,.73,13.1-.9,19.06-3.6,5.96-2.7,11.38-6.44,16.76-10.16" style="fill:#e0e0e0;"></path><path d="M586.4,244.16c-6.25-4.1-12.68-8.27-19.96-9.97-7.28-1.7-15.72-.44-20.8,5.05,5.89,3.46,13.05,3.87,19.88,3.86,6.83,0,15.21-.08,21.66,2.2" style="fill:#e0e0e0;"></path><path d="M586.44,244.49c-10.69-10.5-14.74-29.36-10.44-43.71,8.4,12.77,12.17,28.52,10.44,43.71" style="fill:#e0e0e0;"></path><path d="M615.83,214.74c2.02-4.69,3.43-9.61,5.24-14.38s4.06-9.47,7.48-13.26c3.42-3.79,8.15-6.61,13.24-6.86-3.19,14.45-12.79,27.35-25.7,34.57" style="fill:#e0e0e0;"></path><path d="M610.51,220.94c-3.34-4.59-7.19-10.83-11.72-14.26-4.53-3.43-10.42-5.5-15.94-4.19,5.62,10.04,16.23,17.12,27.66,18.44" style="fill:#e0e0e0;"></path><path d="M611.58,215.12c-2.19-5.56-4.39-11.17-5.27-17.08-.88-5.91-.35-12.22,2.67-17.37,5.87,11.09,7.76,23,2.9,34.57" style="fill:#e0e0e0;"></path><path d="M615.89,180.68c3.32-11,13.39-19.1,24.27-22.81,1.37-.47,2.82-.86,4.25-.64,1.43,.22,2.84,1.2,3.14,2.62,.4,1.87-1.15,3.55-2.6,4.79-8.47,7.24-18.42,12.73-29.05,16.04" style="fill:#e0e0e0;"></path><path d="M616.01,171.68c.42-7.09,.86-14.28,3.17-21,2.31-6.72,6.75-13.02,13.22-15.96,1.1,7.16-2.06,14.29-5.87,20.45-3.81,6.16-8.4,11.98-10.69,18.85" style="fill:#e0e0e0;"></path><path d="M615.83,176.56c-2.75-8.01-3.03-18.2-7.83-25.18-3.35-4.88-8.73-8.21-11.62-13.38-1.92,4.83-1.33,10.39,.68,15.18,2.01,4.79,5.33,8.92,8.88,12.71s6.59,6.65,9.89,10.66" style="fill:#e0e0e0;"></path><path d="M615.89,412.6c-.21,0-.4-53.47-.41-119.41-.01-65.96,.15-119.42,.36-119.42s.4,53.46,.41,119.42c.01,65.94-.15,119.41-.36,119.41Z" style="fill:#e0e0e0;"></path><path d="M662.61,252.44c.01,.05-.7,.32-2.01,.75-1.44,.49-3.3,1.11-5.53,1.87-4.66,1.59-11.07,3.89-18.03,6.74-6.89,2.95-13.38,5.35-17.08,8.56-1.85,1.58-2.91,3.29-3.43,4.54-.53,1.26-.63,2.02-.7,2.01-.03,0-.02-.2,.02-.56,.06-.36,.15-.9,.39-1.56,.45-1.32,1.48-3.15,3.35-4.84,1.86-1.69,4.45-3.22,7.41-4.6,2.96-1.38,6.25-2.83,9.74-4.26,6.98-2.86,13.43-5.09,18.15-6.55,2.36-.74,4.28-1.28,5.61-1.64,1.34-.35,2.08-.52,2.1-.47Z" style="fill:#e0e0e0;"></path><path d="M677.93,214.82s-.18,.23-.56,.6c-.46,.43-1.02,.96-1.72,1.61-1.59,1.45-3.76,3.42-6.41,5.82-5.53,4.92-13.03,11.6-21.32,18.98-8.32,7.41-15.51,14.49-20.5,19.81-2.5,2.66-4.46,4.87-5.8,6.41-.63,.71-1.14,1.3-1.55,1.77-.36,.4-.56,.6-.58,.59-.02-.02,.14-.25,.46-.68,.32-.43,.79-1.07,1.44-1.86,1.27-1.6,3.18-3.87,5.63-6.58,4.89-5.44,12.05-12.6,20.38-20.02,8.35-7.39,15.95-14.03,21.47-18.81,2.71-2.33,4.93-4.23,6.57-5.63,.73-.61,1.33-1.1,1.81-1.5,.42-.34,.65-.5,.67-.48Z" style="fill:#e0e0e0;"></path><path d="M638.94,249.36c-.22-.1,1.52-4.11,3.25-9.19,1.75-5.08,2.57-9.36,2.79-9.32,.2,.02-.29,4.43-2.06,9.57-.87,2.57-1.83,4.82-2.59,6.43-.76,1.6-1.3,2.56-1.4,2.51Z" style="fill:#e0e0e0;"></path><path d="M615.94,281.72s-.5-.5-1.28-1.49c-.87-1.12-1.97-2.53-3.29-4.21-2.76-3.57-6.57-8.49-10.85-13.88-4.28-5.39-8.21-10.22-11.06-13.72-1.34-1.66-2.47-3.05-3.36-4.16-.78-.99-1.2-1.55-1.16-1.59,.04-.03,.53,.46,1.39,1.39,.86,.93,2.07,2.29,3.55,4,2.96,3.41,6.96,8.19,11.24,13.59,4.28,5.4,8.03,10.38,10.68,14.03,1.33,1.83,2.38,3.32,3.09,4.36,.71,1.04,1.08,1.64,1.04,1.67Z" style="fill:#e0e0e0;"></path><path d="M605.69,268.57c-.13,.14-2.86-3.11-4.29-8.03-1.06-3.47-1.1-6.65-.97-8.1l.34,.03c-.15,.62-.26,.95-.33,.94-.06-.01-.06-.35-.01-.99l.34,.03c.12,1.44,.34,4.51,1.37,7.88,1.38,4.77,3.76,8.12,3.55,8.26Z" style="fill:#e0e0e0;"></path><path d="M592.47,251.93c-.1,.11-.98-1-3-1.74-2-.77-5.01-.94-8.32-.66-3.31,.24-6.26,.83-8.38,1.35-2.12,.52-3.41,.94-3.45,.83-.04-.09,1.2-.69,3.3-1.35,2.1-.66,5.1-1.35,8.47-1.6,3.34-.29,6.51-.03,8.58,.93,2.1,.93,2.86,2.23,2.79,2.25Z" style="fill:#e0e0e0;"></path><path d="M589.33,247.9c-.06,.12-1.75-.7-4.59-1.67-2.84-.98-6.89-2-11.45-2.36-4.57-.34-8.73,.06-11.68,.59-2.96,.53-4.75,1.08-4.79,.96-.02-.05,.42-.23,1.22-.52,.8-.3,1.98-.64,3.47-.97,2.96-.68,7.19-1.18,11.85-.83,4.65,.36,8.75,1.49,11.58,2.61,1.42,.56,2.54,1.07,3.28,1.49,.75,.4,1.15,.65,1.12,.7Z" style="fill:#e0e0e0;"></path><path d="M615.83,230.85c-.21,.05-1.71-5.16-3.35-11.63-1.64-6.48-2.81-11.77-2.6-11.82,.21-.05,1.71,5.15,3.35,11.63,1.64,6.47,2.81,11.77,2.6,11.82Z" style="fill:#e0e0e0;"></path><path d="M616.05,230.85c-.23,.07-1.19-3.4-3.71-6.96-2.45-3.63-5.58-5.46-5.46-5.64,.04-.08,.9,.24,2.11,1.09,1.21,.84,2.7,2.26,3.99,4.11,2.61,3.7,3.27,7.39,3.08,7.41Z" style="fill:#e0e0e0;"></path><path d="M615.89,384.09c-.08,.01-.24-1.29-.84-3.56-.6-2.27-1.72-5.49-3.57-9.26-3.69-7.55-10.42-17.12-18.96-26.71-4.23-4.84-8.34-9.4-11.82-13.76-3.49-4.36-6.36-8.52-8.45-12.19-2.1-3.67-3.47-6.83-4.27-9.05-.39-1.12-.68-1.99-.84-2.59-.17-.6-.25-.92-.22-.92,.07-.02,.46,1.22,1.34,3.4,.88,2.18,2.31,5.27,4.46,8.88,2.14,3.61,5.03,7.71,8.54,12.02,3.5,4.32,7.61,8.86,11.85,13.7,8.56,9.61,15.27,19.31,18.87,26.98,1.81,3.83,2.86,7.11,3.37,9.42,.25,1.16,.41,2.06,.47,2.68,.08,.62,.1,.94,.08,.95Z" style="fill:#e0e0e0;"></path><path d="M658.11,336.4c.03,.06-.78,.47-2.21,1.24-1.42,.8-3.43,2.03-5.74,3.79-2.31,1.77-4.89,4.09-7.54,6.88-2.65,2.8-5.37,6.04-8.15,9.52-5.56,6.98-10.76,13.15-13.88,18.08-1.58,2.44-2.73,4.51-3.48,5.95-.76,1.44-1.16,2.25-1.22,2.23-.02-.01,.05-.23,.21-.63,.16-.4,.39-1,.74-1.73,.67-1.49,1.76-3.61,3.29-6.11,3.02-5.05,8.18-11.31,13.74-18.27,2.79-3.48,5.55-6.74,8.24-9.53,2.7-2.79,5.35-5.09,7.72-6.82,2.38-1.73,4.45-2.9,5.93-3.62,.73-.37,1.33-.59,1.73-.76,.4-.16,.61-.24,.62-.21Z" style="fill:#e0e0e0;"></path><path d="M658.94,351.88c0,.11-1.79,.33-4.68,.68-2.88,.37-6.89,.85-11.09,2.18-4.19,1.36-7.67,3.44-9.93,5.21-2.29,1.77-3.37,3.23-3.48,3.15-.04-.03,.19-.43,.69-1.08,.5-.66,1.32-1.53,2.44-2.49,2.23-1.92,5.74-4.12,10.04-5.52,4.3-1.36,8.37-1.76,11.28-1.99,2.92-.21,4.72-.24,4.73-.14Z" style="fill:#e0e0e0;"></path><path d="M631.12,361.4c-.24-.14,1.86-3.36,3.5-7.69,1.53-4.37,1.89-8.2,2.17-8.16,.1,.01,.1,.97-.08,2.51-.18,1.53-.55,3.67-1.36,5.91-.82,2.24-1.89,4.12-2.71,5.42-.83,1.3-1.43,2.06-1.51,2Z" style="fill:#e0e0e0;"></path><path d="M671.78,294.87s-.25,.16-.75,.4c-.58,.26-1.31,.59-2.2,1-.96,.41-2.13,.94-3.45,1.63-1.32,.68-2.86,1.38-4.47,2.35-.82,.46-1.67,.95-2.55,1.45-.88,.51-1.76,1.11-2.69,1.7-1.88,1.14-3.77,2.55-5.78,3.98-3.94,2.99-8.07,6.52-12.06,10.6-3.95,4.12-7.34,8.38-10.19,12.42-1.36,2.06-2.71,3.99-3.78,5.91-.55,.95-1.12,1.85-1.6,2.75-.47,.9-.93,1.77-1.36,2.6-.91,1.64-1.56,3.2-2.19,4.55-.65,1.34-1.13,2.53-1.51,3.5-.37,.9-.68,1.64-.92,2.23-.22,.51-.35,.77-.37,.76-.03,0,.05-.29,.23-.81,.21-.6,.47-1.36,.79-2.29,.34-1,.78-2.2,1.4-3.57,.6-1.37,1.22-2.96,2.1-4.62,.42-.84,.87-1.72,1.33-2.64,.47-.91,1.03-1.82,1.57-2.79,1.06-1.95,2.39-3.9,3.75-5.99,2.84-4.09,6.24-8.39,10.22-12.55,4.02-4.11,8.2-7.66,12.19-10.64,2.04-1.43,3.95-2.82,5.86-3.95,.95-.58,1.83-1.17,2.73-1.67,.9-.49,1.76-.96,2.59-1.42,1.63-.94,3.2-1.61,4.54-2.26,1.34-.66,2.53-1.15,3.52-1.52,.92-.35,1.66-.64,2.26-.87,.52-.19,.8-.28,.81-.25Z" style="fill:#e0e0e0;"></path><path d="M638.37,317.26c-.07-.01,.3-1.31,1.84-2.74,1.5-1.43,4.23-2.74,7.4-2.84,3.17-.08,5.91,.8,7.79,1.52,1.89,.74,2.98,1.34,2.95,1.43-.04,.11-1.22-.32-3.12-.91-1.9-.58-4.58-1.35-7.59-1.27-2.99,.09-5.57,1.24-7.07,2.48-1.53,1.23-2.07,2.4-2.19,2.32Z" style="fill:#e0e0e0;"></path><path d="M633.37,322.41c-.21-.12,1.67-2.88,2.1-6.84,.49-3.95-.7-7.07-.47-7.14,.08-.03,.51,.69,.87,1.99,.37,1.29,.61,3.18,.37,5.24-.24,2.06-.91,3.84-1.57,5.01-.65,1.18-1.23,1.79-1.3,1.74Z" style="fill:#e0e0e0;"></path></g><path d="M578.96,391.75c1.15,20.43,7.31,41.21,16.78,62.22h41.18c9.03-20.8,14.76-41.55,15.78-62.22h-73.75Z" style="fill:#e0e0e0;"></path><path d="M646.03,424.82c0,.21-13.56,.39-30.28,.39s-30.29-.17-30.29-.39,13.56-.39,30.29-.39,30.28,.17,30.28,.39Z" style="fill:#fafafa;"></path><path d="M645.11,432.22c0,.21-12.71,.39-28.39,.39s-28.39-.17-28.39-.39,12.71-.39,28.39-.39,28.39,.17,28.39,.39Z" style="fill:#fafafa;"></path><path d="M596.4,405.17c.21,0,.39,4.25,.39,9.49s-.17,9.49-.39,9.49-.39-4.25-.39-9.49,.17-9.49,.39-9.49Z" style="fill:#fafafa;"></path><path d="M618.47,405.17c.21,0,.39,4.4,.39,9.82s-.17,9.82-.39,9.82-.39-4.4-.39-9.82,.17-9.82,.39-9.82Z" style="fill:#fafafa;"></path><path d="M639.19,405c.21,0,.39,4.49,.39,10.02s-.17,10.02-.39,10.02-.39-4.49-.39-10.02,.17-10.02,.39-10.02Z" style="fill:#fafafa;"></path><path d="M651.4,405.17c0,.21-15.9,.39-35.52,.39s-35.52-.17-35.52-.39,15.9-.39,35.52-.39,35.52,.17,35.52,.39Z" style="fill:#fafafa;"></path></g></g><g id="freepik--Floor--inject-11"><path d="M708.74,452.97c0,.14-151.7,.26-338.78,.26s-338.81-.12-338.81-.26,151.66-.26,338.81-.26,338.78,.12,338.78,.26Z" style="fill:#263238;"></path></g><g id="freepik--Piles_of_tiles--inject-11"><g><g><g><rect x="522.01" y="423.14" width="75.59" height="3.8" rx="1.83" ry="1.83" style="fill:#2B6797;"></rect><g style="opacity:.4;"><rect x="522.01" y="423.14" width="75.59" height="3.8" rx="1.83" ry="1.83" style="fill:#fff;"></rect></g></g><g><rect x="522.01" y="426.8" width="75.59" height="3.8" rx="1.83" ry="1.83" style="fill:#2B6797;"></rect><g style="opacity:.4;"><rect x="522.01" y="426.8" width="75.59" height="3.8" rx="1.83" ry="1.83" style="fill:#fff;"></rect></g></g><g><rect x="522.01" y="430.6" width="75.59" height="3.8" rx="1.83" ry="1.83" style="fill:#2B6797;"></rect><g style="opacity:.4;"><rect x="522.01" y="430.6" width="75.59" height="3.8" rx="1.83" ry="1.83" style="fill:#fff;"></rect></g></g><g><rect x="522.01" y="434.58" width="75.59" height="3.8" rx="1.83" ry="1.83" style="fill:#2B6797;"></rect><g style="opacity:.4;"><rect x="522.01" y="434.58" width="75.59" height="3.8" rx="1.83" ry="1.83" style="fill:#fff;"></rect></g></g><path d="M596.01,426.8c0,.14-16.25,.26-36.29,.26s-36.29-.12-36.29-.26,16.25-.26,36.29-.26,36.29,.12,36.29,.26Z" style="fill:#263238;"></path><path d="M596.01,430.6c0,.14-16.25,.26-36.29,.26s-36.29-.12-36.29-.26,16.25-.26,36.29-.26,36.29,.12,36.29,.26Z" style="fill:#263238;"></path><path d="M596.1,434.4c0,.14-16.25,.26-36.29,.26s-36.29-.12-36.29-.26,16.25-.26,36.29-.26,36.29,.12,36.29,.26Z" style="fill:#263238;"></path></g><g><g><rect x="522.01" y="438.16" width="75.59" height="3.8" rx="1.83" ry="1.83" style="fill:#2B6797;"></rect><g style="opacity:.4;"><rect x="522.01" y="438.16" width="75.59" height="3.8" rx="1.83" ry="1.83" style="fill:#fff;"></rect></g></g><g><rect x="522.01" y="441.83" width="75.59" height="3.8" rx="1.83" ry="1.83" style="fill:#2B6797;"></rect><g style="opacity:.4;"><rect x="522.01" y="441.83" width="75.59" height="3.8" rx="1.83" ry="1.83" style="fill:#fff;"></rect></g></g><g><rect x="522.01" y="445.63" width="75.59" height="3.8" rx="1.83" ry="1.83" style="fill:#2B6797;"></rect><g style="opacity:.4;"><rect x="522.01" y="445.63" width="75.59" height="3.8" rx="1.83" ry="1.83" style="fill:#fff;"></rect></g></g><g><rect x="522.01" y="449.6" width="75.59" height="3.8" rx="1.83" ry="1.83" style="fill:#2B6797;"></rect><g style="opacity:.4;"><rect x="522.01" y="449.6" width="75.59" height="3.8" rx="1.83" ry="1.83" style="fill:#fff;"></rect></g></g><path d="M596.01,441.83c0,.14-16.25,.26-36.29,.26s-36.29-.12-36.29-.26,16.25-.26,36.29-.26,36.29,.12,36.29,.26Z" style="fill:#263238;"></path><path d="M596.01,445.63c0,.14-16.25,.26-36.29,.26s-36.29-.12-36.29-.26,16.25-.26,36.29-.26,36.29,.12,36.29,.26Z" style="fill:#263238;"></path><path d="M596.1,449.43c0,.14-16.25,.26-36.29,.26s-36.29-.12-36.29-.26,16.25-.26,36.29-.26,36.29,.12,36.29,.26Z" style="fill:#263238;"></path></g><path d="M596.1,438.13c0,.14-16.25,.26-36.29,.26s-36.29-.12-36.29-.26,16.25-.26,36.29-.26,36.29,.12,36.29,.26Z" style="fill:#263238;"></path></g><g><g><g><rect x="638.38" y="423.14" width="75.59" height="3.8" rx="1.83" ry="1.83" style="fill:#2B6797;"></rect><g style="opacity:.4;"><rect x="638.38" y="423.14" width="75.59" height="3.8" rx="1.83" ry="1.83" style="fill:#fff;"></rect></g></g><g><rect x="638.38" y="426.8" width="75.59" height="3.8" rx="1.83" ry="1.83" style="fill:#2B6797;"></rect><g style="opacity:.4;"><rect x="638.38" y="426.8" width="75.59" height="3.8" rx="1.83" ry="1.83" style="fill:#fff;"></rect></g></g><g><rect x="638.38" y="430.6" width="75.59" height="3.8" rx="1.83" ry="1.83" style="fill:#2B6797;"></rect><g style="opacity:.4;"><rect x="638.38" y="430.6" width="75.59" height="3.8" rx="1.83" ry="1.83" style="fill:#fff;"></rect></g></g><g><rect x="638.38" y="434.58" width="75.59" height="3.8" rx="1.83" ry="1.83" style="fill:#2B6797;"></rect><g style="opacity:.4;"><rect x="638.38" y="434.58" width="75.59" height="3.8" rx="1.83" ry="1.83" style="fill:#fff;"></rect></g></g><path d="M712.38,426.8c0,.14-16.25,.26-36.29,.26s-36.29-.12-36.29-.26,16.25-.26,36.29-.26,36.29,.12,36.29,.26Z" style="fill:#263238;"></path><path d="M712.38,430.6c0,.14-16.25,.26-36.29,.26s-36.29-.12-36.29-.26,16.25-.26,36.29-.26,36.29,.12,36.29,.26Z" style="fill:#263238;"></path><path d="M712.46,434.4c0,.14-16.25,.26-36.29,.26s-36.29-.12-36.29-.26,16.25-.26,36.29-.26,36.29,.12,36.29,.26Z" style="fill:#263238;"></path></g><g><g><rect x="638.38" y="438.16" width="75.59" height="3.8" rx="1.83" ry="1.83" style="fill:#2B6797;"></rect><g style="opacity:.4;"><rect x="638.38" y="438.16" width="75.59" height="3.8" rx="1.83" ry="1.83" style="fill:#fff;"></rect></g></g><g><rect x="638.38" y="441.83" width="75.59" height="3.8" rx="1.83" ry="1.83" style="fill:#2B6797;"></rect><g style="opacity:.4;"><rect x="638.38" y="441.83" width="75.59" height="3.8" rx="1.83" ry="1.83" style="fill:#fff;"></rect></g></g><g><rect x="638.38" y="445.63" width="75.59" height="3.8" rx="1.83" ry="1.83" style="fill:#2B6797;"></rect><g style="opacity:.4;"><rect x="638.38" y="445.63" width="75.59" height="3.8" rx="1.83" ry="1.83" style="fill:#fff;"></rect></g></g><g><rect x="638.38" y="449.6" width="75.59" height="3.8" rx="1.83" ry="1.83" style="fill:#2B6797;"></rect><g style="opacity:.4;"><rect x="638.38" y="449.6" width="75.59" height="3.8" rx="1.83" ry="1.83" style="fill:#fff;"></rect></g></g><path d="M712.38,441.83c0,.14-16.25,.26-36.29,.26s-36.29-.12-36.29-.26,16.25-.26,36.29-.26,36.29,.12,36.29,.26Z" style="fill:#263238;"></path><path d="M712.38,445.63c0,.14-16.25,.26-36.29,.26s-36.29-.12-36.29-.26,16.25-.26,36.29-.26,36.29,.12,36.29,.26Z" style="fill:#263238;"></path><path d="M712.46,449.43c0,.14-16.25,.26-36.29,.26s-36.29-.12-36.29-.26,16.25-.26,36.29-.26,36.29,.12,36.29,.26Z" style="fill:#263238;"></path></g><path d="M712.46,438.13c0,.14-16.25,.26-36.29,.26s-36.29-.12-36.29-.26,16.25-.26,36.29-.26,36.29,.12,36.29,.26Z" style="fill:#263238;"></path></g><g><g><g><rect x="638.38" y="392.83" width="75.59" height="3.8" rx="1.83" ry="1.83" style="fill:#2B6797;"></rect><g style="opacity:.4;"><rect x="638.38" y="392.83" width="75.59" height="3.8" rx="1.83" ry="1.83" style="fill:#fff;"></rect></g></g><g><rect x="638.38" y="396.5" width="75.59" height="3.8" rx="1.83" ry="1.83" style="fill:#2B6797;"></rect><g style="opacity:.4;"><rect x="638.38" y="396.5" width="75.59" height="3.8" rx="1.83" ry="1.83" style="fill:#fff;"></rect></g></g><g><rect x="638.38" y="400.29" width="75.59" height="3.8" rx="1.83" ry="1.83" style="fill:#2B6797;"></rect><g style="opacity:.4;"><rect x="638.38" y="400.29" width="75.59" height="3.8" rx="1.83" ry="1.83" style="fill:#fff;"></rect></g></g><g><rect x="638.38" y="404.27" width="75.59" height="3.8" rx="1.83" ry="1.83" style="fill:#2B6797;"></rect><g style="opacity:.4;"><rect x="638.38" y="404.27" width="75.59" height="3.8" rx="1.83" ry="1.83" style="fill:#fff;"></rect></g></g><path d="M712.38,396.5c0,.14-16.25,.26-36.29,.26s-36.29-.12-36.29-.26,16.25-.26,36.29-.26,36.29,.12,36.29,.26Z" style="fill:#263238;"></path><path d="M712.38,400.29c0,.14-16.25,.26-36.29,.26s-36.29-.12-36.29-.26,16.25-.26,36.29-.26,36.29,.12,36.29,.26Z" style="fill:#263238;"></path><path d="M712.46,404.09c0,.14-16.25,.26-36.29,.26s-36.29-.12-36.29-.26,16.25-.26,36.29-.26,36.29,.12,36.29,.26Z" style="fill:#263238;"></path></g><g><g><rect x="638.38" y="407.86" width="75.59" height="3.8" rx="1.83" ry="1.83" style="fill:#2B6797;"></rect><g style="opacity:.4;"><rect x="638.38" y="407.86" width="75.59" height="3.8" rx="1.83" ry="1.83" style="fill:#fff;"></rect></g></g><g><rect x="638.38" y="411.52" width="75.59" height="3.8" rx="1.83" ry="1.83" style="fill:#2B6797;"></rect><g style="opacity:.4;"><rect x="638.38" y="411.52" width="75.59" height="3.8" rx="1.83" ry="1.83" style="fill:#fff;"></rect></g></g><g><rect x="638.38" y="415.32" width="75.59" height="3.8" rx="1.83" ry="1.83" style="fill:#2B6797;"></rect><g style="opacity:.4;"><rect x="638.38" y="415.32" width="75.59" height="3.8" rx="1.83" ry="1.83" style="fill:#fff;"></rect></g></g><g><rect x="638.38" y="419.3" width="75.59" height="3.8" rx="1.83" ry="1.83" style="fill:#2B6797;"></rect><g style="opacity:.4;"><rect x="638.38" y="419.3" width="75.59" height="3.8" rx="1.83" ry="1.83" style="fill:#fff;"></rect></g></g><path d="M712.38,411.52c0,.14-16.25,.26-36.29,.26s-36.29-.12-36.29-.26,16.25-.26,36.29-.26,36.29,.12,36.29,.26Z" style="fill:#263238;"></path><path d="M712.38,415.32c0,.14-16.25,.26-36.29,.26s-36.29-.12-36.29-.26,16.25-.26,36.29-.26,36.29,.12,36.29,.26Z" style="fill:#263238;"></path><path d="M712.46,419.12c0,.14-16.25,.26-36.29,.26s-36.29-.12-36.29-.26,16.25-.26,36.29-.26,36.29,.12,36.29,.26Z" style="fill:#263238;"></path></g><path d="M712.46,407.83c0,.14-16.25,.26-36.29,.26s-36.29-.12-36.29-.26,16.25-.26,36.29-.26,36.29,.12,36.29,.26Z" style="fill:#263238;"></path></g></g><g id="freepik--Wall--inject-11"><g><path d="M508.33,405.21c.52-6.23,1.32-12.55,.06-18.67-3.05,.35-5.79-1.89-7.7-4.3-1.91-2.41-3.5-5.21-6.13-6.81-7-4.24-16.05,2.45-24.02,.63-2.16-.49-4.21-1.62-6.42-1.59-1.91,.02-3.71,.9-5.61,1.11-3.86,.43-7.79-1.9-11.52-.83-1.72,.49-3.25,1.69-5.04,1.73-2.54,.06-4.73-2.25-7.27-2.06-1.08,.08-2.07,.61-3.1,.97-3.25,1.14-7.02,.39-9.72-1.7,.45-2.52,.72-5.06,.51-7.61-.28-3.37-1.4-6.66-1.21-10.04,.14-2.42,.95-4.76,1.12-7.18,.18-2.63-.42-5.25-.78-7.86-1.31-9.6,.67-19.35,.22-29.02-.12-2.48-.61-5.3-2.67-6.61,.28-3.26,2.16-6.4,2.37-9.73,.21-3.25-1.18-6.37-1.68-9.58-.7-4.47,.31-9,.86-13.48,.79-6.48,.62-13.03,.44-19.55-.11-4.12-.22-8.23-.33-12.35-.13-4.8-.76-10.47-4.95-12.81-5.07-2.83-11.35,1.36-17.11,.54-2.47-.35-4.85-1.64-7.33-1.35-2.05,.24-3.9,1.55-5.96,1.62-3.31,.12-6.02-2.92-9.33-3.15-3.67-.26-6.72,2.95-10.36,3.48-4.39,.64-8.66-2.7-13.04-2-1.7,.27-3.28,1.15-5,1.27-1.31,.09-2.8-.53-3.4-1.59,.37-2.3,.59-4.61,.4-6.92-.28-3.37-1.4-6.66-1.21-10.04,.14-2.42,.95-4.76,1.12-7.18,.18-2.63-.42-5.25-.78-7.86-1.31-9.6,.67-19.35,.22-29.02-.12-2.49-.61-5.34-2.7-6.63-1.08-.67-2.38-.78-3.64-.88-15.6-1.21-31.28-2.43-46.87-1.08-4.45,.39-8.95,.98-13.36,.28-1.87-.3-3.73-.82-5.62-.69-1.89,.13-3.88,1.11-4.54,2.92l-1.23-.65c1.08,4.98-.06,10.14-.56,15.22-1.47,14.91,2.66,30.01,.87,44.88-.28,2.36-.72,4.73-.55,7.11,.17,2.37,1.03,4.82,2.88,6.28,3.34,2.64,8.09,1.09,12.31,.93,6.01-.22,11.83,2.65,17.83,2.32,2.28-.13,4.5-.71,6.75-1.1,5.8-1.01,11.69-.71,17.6-.37-.03,.63,0,1.26,.09,1.87,.41,2.75,1.7,5.29,2.41,7.98,2.1,7.95-.96,16.2-2.92,24.18-4.32,17.63-3.16,36.57,3.3,53.54,.54,1.42,1.18,2.91,2.44,3.77,.97,.66,2.19,.85,3.36,.98,3.69,.43,7.39,.56,11.09,.53-.06,12.76,2.71,25.61,1.19,38.31-.28,2.36-.72,4.73-.55,7.11,.17,2.37,1.03,4.82,2.88,6.28,3.34,2.64,8.09,1.09,12.31,.93,6.01-.22,11.83,2.65,17.83,2.32,2.28-.13,4.5-.71,6.75-1.1,5.05-.88,10.17-.77,15.3-.5l1.3,72.78c12.95-.17,25.88-1.38,38.83-1.57,23.65-.35,47.46,2.7,70.88-.6-2.11-15.16-2.54-30.55-1.26-45.8Z" style="fill:#f5f5f5;"></path><g><rect x="195.23" y="233.36" width="71.23" height="71.23" rx="2.59" ry="2.59" style="fill:#2B6797;"></rect><g style="opacity:.4;"><rect x="195.23" y="233.36" width="71.23" height="71.23" rx="2.59" ry="2.59" style="fill:#fff;"></rect></g><g style="opacity:.3;"><polygon points="195.23 254.14 213.76 233.36 238.82 233.36 195.23 277.23 195.23 254.14" style="fill:#fff;"></polygon></g><g style="opacity:.3;"><path d="M195.23,296.14l63.28-62.78h4.85c1.71,0,3.1,1.39,3.1,3.1v18.83l-47.82,49.3h-20.57c-1.57,0-2.84-1.27-2.84-2.84v-5.61Z" style="fill:#fff;"></path></g><path d="M252.4,302.83c0,.14-11.02,.26-24.61,.26s-24.62-.12-24.62-.26,11.02-.26,24.62-.26,24.61,.12,24.61,.26Z" style="fill:#fff;"></path><path d="M264.25,274.44c.14,0,.26,4.3,.26,9.6s-.12,9.6-.26,9.6-.26-4.3-.26-9.6,.12-9.6,.26-9.6Z" style="fill:#fff;"></path><path d="M263.64,262.79c.14,0,.26,1.55,.26,3.47s-.12,3.47-.26,3.47-.26-1.55-.26-3.47,.12-3.47,.26-3.47Z" style="fill:#fff;"></path></g><g><rect x="195.23" y="159.72" width="71.23" height="71.23" rx="2.59" ry="2.59" style="fill:#2B6797;"></rect><g style="opacity:.3;"><polygon points="217.93 230.73 266.46 179.31 266.46 206.53 242.19 230.73 217.93 230.73" style="fill:#fff;"></polygon></g><g style="opacity:.4;"><rect x="195.23" y="159.72" width="71.23" height="71.23" rx="2.59" ry="2.59" style="fill:#fff;"></rect></g></g><g><rect x="121.26" y="233.36" width="71.23" height="71.23" rx="2.59" ry="2.59" style="fill:#2B6797;"></rect><g style="opacity:.4;"><rect x="121.26" y="233.36" width="71.23" height="71.23" rx="2.59" ry="2.59" style="fill:#fff;"></rect></g><g style="opacity:.4;"><path d="M185.62,264.01c-.03-.3-.07-.63-.27-.85-.41-.45-1.18-.21-1.63,.2-1.44,1.31-1.35,3.55-1.23,5.49,.35,5.66,.06,11.37-.86,16.96-.19,1.16-.42,2.35-1.04,3.35-.51,.81-1.25,1.45-2.01,2.03-2.47,1.85-5.34,3.17-8.35,3.83-1.76,.39-3.55,.55-5.34,.72-6.99,.65-13.97,1.29-20.96,1.94-1.59,.15-4.07,.92-4.94,2.27,14.01,.5,28.04,.41,42.05-.27,.68-.03,1.39-.07,2-.39,.77-.4,1.27-1.18,1.63-1.96,1.05-2.27,1.26-4.83,1.4-7.33,.5-8.65,.34-17.35-.45-25.98Z" style="fill:#fff;"></path></g><path d="M125.42,244.02c.14,0,.26,10.83,.26,24.19s-.12,24.19-.26,24.19-.26-10.83-.26-24.19,.12-24.19,.26-24.19Z" style="fill:#fff;"></path><path d="M125.66,241.37c.14,0,.26,.27,.26,.6s-.12,.6-.26,.6-.26-.27-.26-.6,.12-.6,.26-.6Z" style="fill:#fff;"></path></g><g><rect x="121.26" y="159.72" width="71.23" height="71.23" rx="2.59" ry="2.59" style="fill:#2B6797;"></rect><g style="opacity:.4;"><rect x="121.26" y="159.72" width="71.23" height="71.23" rx="2.59" ry="2.59" style="fill:#fff;"></rect></g><g style="opacity:.4;"><path d="M185.62,190.37c-.03-.3-.07-.63-.27-.85-.41-.45-1.18-.21-1.63,.2-1.44,1.31-1.35,3.55-1.23,5.49,.35,5.66,.06,11.37-.86,16.97-.19,1.16-.42,2.35-1.04,3.35-.51,.81-1.25,1.45-2.01,2.03-2.47,1.85-5.34,3.17-8.35,3.83-1.76,.39-3.55,.55-5.34,.72-6.99,.65-13.97,1.29-20.96,1.94-1.59,.15-4.07,.92-4.94,2.27,14.01,.5,28.04,.41,42.05-.27,.68-.03,1.39-.07,2-.39,.77-.4,1.27-1.18,1.63-1.96,1.05-2.27,1.26-4.83,1.4-7.33,.5-8.65,.34-17.35-.45-25.98Z" style="fill:#fff;"></path></g><path d="M125.42,170.39c.14,0,.26,10.83,.26,24.19s-.12,24.19-.26,24.19-.26-10.83-.26-24.19,.12-24.19,.26-24.19Z" style="fill:#fff;"></path><path d="M125.66,167.74c.14,0,.26,.27,.26,.6s-.12,.6-.26,.6-.26-.27-.26-.6,.12-.6,.26-.6Z" style="fill:#fff;"></path></g><g><rect x="195.23" y="306.64" width="71.23" height="71.23" rx="2.59" ry="2.59" style="fill:#2B6797;"></rect><g style="opacity:.4;"><rect x="195.23" y="306.64" width="71.23" height="71.23" rx="2.59" ry="2.59" style="fill:#fff;"></rect></g><g style="opacity:.4;"><path d="M259.58,337.28c-.03-.3-.07-.63-.27-.85-.41-.45-1.18-.21-1.63,.2-1.44,1.31-1.35,3.55-1.23,5.49,.35,5.66,.06,11.37-.86,16.97-.19,1.16-.42,2.35-1.04,3.35-.51,.81-1.25,1.45-2.01,2.03-2.47,1.85-5.34,3.17-8.35,3.83-1.76,.39-3.55,.55-5.34,.72-6.99,.64-13.97,1.29-20.96,1.94-1.59,.15-4.07,.92-4.94,2.27,14.01,.5,28.04,.41,42.05-.27,.68-.03,1.39-.07,2-.39,.77-.4,1.27-1.18,1.63-1.96,1.05-2.27,1.26-4.83,1.4-7.33,.5-8.65,.34-17.35-.45-25.98Z" style="fill:#fff;"></path></g><path d="M199.38,317.3c.14,0,.26,10.83,.26,24.19s-.12,24.19-.26,24.19-.26-10.83-.26-24.19,.12-24.19,.26-24.19Z" style="fill:#fff;"></path><path d="M199.62,314.65c.14,0,.26,.27,.26,.6s-.12,.6-.26,.6-.26-.27-.26-.6,.12-.6,.26-.6Z" style="fill:#fff;"></path></g><g><rect x="121.26" y="306.64" width="71.23" height="71.23" rx="2.59" ry="2.59" style="fill:#2B6797;"></rect><g style="opacity:.4;"><rect x="121.26" y="306.64" width="71.23" height="71.23" rx="2.59" ry="2.59" style="fill:#fff;"></rect></g><g style="opacity:.4;"><path d="M185.62,337.28c-.03-.3-.07-.63-.27-.85-.41-.45-1.18-.21-1.63,.2-1.44,1.31-1.35,3.55-1.23,5.49,.35,5.66,.06,11.37-.86,16.97-.19,1.16-.42,2.35-1.04,3.35-.51,.81-1.25,1.45-2.01,2.03-2.47,1.85-5.34,3.17-8.35,3.83-1.76,.39-3.55,.55-5.34,.72-6.99,.64-13.97,1.29-20.96,1.94-1.59,.15-4.07,.92-4.94,2.27,14.01,.5,28.04,.41,42.05-.27,.68-.03,1.39-.07,2-.39,.77-.4,1.27-1.18,1.63-1.96,1.05-2.27,1.26-4.83,1.4-7.33,.5-8.65,.34-17.35-.45-25.98Z" style="fill:#fff;"></path></g><path d="M125.42,317.3c.14,0,.26,10.83,.26,24.19s-.12,24.19-.26,24.19-.26-10.83-.26-24.19,.12-24.19,.26-24.19Z" style="fill:#fff;"></path><path d="M125.66,314.65c.14,0,.26,.27,.26,.6s-.12,.6-.26,.6-.26-.27-.26-.6,.12-.6,.26-.6Z" style="fill:#fff;"></path></g><g><rect x="121.26" y="380.66" width="71.23" height="71.23" rx="2.59" ry="2.59" style="fill:#2B6797;"></rect><g style="opacity:.4;"><rect x="121.26" y="380.66" width="71.23" height="71.23" rx="2.59" ry="2.59" style="fill:#fff;"></rect></g><g style="opacity:.4;"><path d="M185.62,411.31c-.03-.3-.07-.63-.27-.85-.41-.45-1.18-.21-1.63,.2-1.44,1.31-1.35,3.55-1.23,5.49,.35,5.66,.06,11.37-.86,16.97-.19,1.16-.42,2.35-1.04,3.35-.51,.81-1.25,1.45-2.01,2.03-2.47,1.85-5.34,3.17-8.35,3.83-1.76,.39-3.55,.55-5.34,.72-6.99,.65-13.97,1.29-20.96,1.94-1.59,.15-4.07,.92-4.94,2.27,14.01,.5,28.04,.41,42.05-.27,.68-.03,1.39-.07,2-.39,.77-.4,1.27-1.18,1.63-1.96,1.05-2.27,1.26-4.83,1.4-7.33,.5-8.65,.34-17.35-.45-25.98Z" style="fill:#fff;"></path></g><path d="M125.42,391.32c.14,0,.26,10.83,.26,24.19s-.12,24.19-.26,24.19-.26-10.83-.26-24.19,.12-24.19,.26-24.19Z" style="fill:#fff;"></path><path d="M125.66,388.67c.14,0,.26,.27,.26,.6s-.12,.6-.26,.6-.26-.27-.26-.6,.12-.6,.26-.6Z" style="fill:#fff;"></path></g><g><rect x="270.03" y="306.64" width="71.23" height="71.23" rx="2.59" ry="2.59" style="fill:#2B6797;"></rect><g style="opacity:.4;"><rect x="270.03" y="306.64" width="71.23" height="71.23" rx="2.59" ry="2.59" style="fill:#fff;"></rect></g><g style="opacity:.4;"><path d="M334.38,337.28c-.03-.3-.07-.63-.27-.85-.41-.45-1.18-.21-1.63,.2-1.44,1.31-1.35,3.55-1.23,5.49,.35,5.66,.06,11.37-.86,16.97-.19,1.16-.42,2.35-1.04,3.35-.51,.81-1.25,1.45-2.01,2.03-2.47,1.85-5.34,3.17-8.35,3.83-1.76,.39-3.55,.55-5.34,.72-6.99,.64-13.97,1.29-20.96,1.94-1.59,.15-4.07,.92-4.94,2.27,14.01,.5,28.04,.41,42.05-.27,.68-.03,1.39-.07,2-.39,.77-.4,1.27-1.18,1.63-1.96,1.05-2.27,1.26-4.83,1.4-7.33,.5-8.65,.34-17.35-.45-25.98Z" style="fill:#fff;"></path></g><path d="M274.18,317.3c.14,0,.26,10.83,.26,24.19s-.12,24.19-.26,24.19-.26-10.83-.26-24.19,.12-24.19,.26-24.19Z" style="fill:#fff;"></path><path d="M274.42,314.65c.14,0,.26,.27,.26,.6s-.12,.6-.26,.6-.26-.27-.26-.6,.12-.6,.26-.6Z" style="fill:#fff;"></path></g><g><rect x="269.55" y="233.36" width="71.23" height="71.23" rx="2.59" ry="2.59" style="fill:#2B6797;"></rect><g style="opacity:.4;"><rect x="269.55" y="233.36" width="71.23" height="71.23" rx="2.59" ry="2.59" style="fill:#fff;"></rect></g><g style="opacity:.4;"><path d="M333.91,264.01c-.03-.3-.07-.63-.27-.85-.41-.45-1.18-.21-1.63,.2-1.44,1.31-1.35,3.55-1.23,5.49,.35,5.66,.06,11.37-.86,16.96-.19,1.16-.42,2.35-1.04,3.35-.51,.81-1.25,1.45-2.01,2.03-2.47,1.85-5.34,3.17-8.35,3.83-1.76,.39-3.55,.55-5.34,.72-6.99,.65-13.97,1.29-20.96,1.94-1.59,.15-4.07,.92-4.94,2.27,14.01,.5,28.04,.41,42.05-.27,.68-.03,1.39-.07,2-.39,.77-.4,1.27-1.18,1.63-1.96,1.05-2.27,1.26-4.83,1.4-7.33,.5-8.65,.35-17.35-.45-25.98Z" style="fill:#fff;"></path></g><path d="M273.71,244.02c.14,0,.26,10.83,.26,24.19s-.12,24.19-.26,24.19-.26-10.83-.26-24.19,.12-24.19,.26-24.19Z" style="fill:#fff;"></path><path d="M273.95,241.37c.14,0,.26,.27,.26,.6s-.12,.6-.26,.6-.26-.27-.26-.6,.12-.6,.26-.6Z" style="fill:#fff;"></path></g><g><rect x="343.47" y="232.94" width="71.23" height="71.23" rx="2.59" ry="2.59" style="fill:#2B6797;"></rect><g style="opacity:.4;"><rect x="343.47" y="232.94" width="71.23" height="71.23" rx="2.59" ry="2.59" style="fill:#fff;"></rect></g><g style="opacity:.4;"><path d="M407.83,263.58c-.03-.3-.07-.63-.27-.85-.41-.45-1.18-.21-1.63,.2-1.44,1.31-1.35,3.55-1.23,5.49,.35,5.66,.06,11.37-.86,16.97-.19,1.16-.42,2.35-1.04,3.35-.51,.81-1.25,1.45-2.01,2.03-2.47,1.85-5.34,3.17-8.35,3.83-1.76,.39-3.55,.55-5.34,.72-6.99,.64-13.97,1.29-20.96,1.94-1.59,.15-4.07,.92-4.94,2.27,14.01,.5,28.04,.41,42.05-.27,.68-.03,1.39-.07,2-.39,.77-.4,1.27-1.18,1.63-1.96,1.05-2.27,1.26-4.83,1.4-7.33,.5-8.65,.34-17.35-.45-25.98Z" style="fill:#fff;"></path></g><path d="M347.63,243.6c.14,0,.26,10.83,.26,24.19s-.12,24.19-.26,24.19-.26-10.83-.26-24.19,.12-24.19,.26-24.19Z" style="fill:#fff;"></path><ellipse cx="347.87" cy="241.55" rx=".26" ry=".6" style="fill:#fff;"></ellipse></g><g><rect x="270.4" y="380.78" width="71.23" height="71.23" rx="2.59" ry="2.59" style="fill:#2B6797;"></rect><g style="opacity:.4;"><rect x="270.4" y="380.78" width="71.23" height="71.23" rx="2.59" ry="2.59" style="fill:#fff;"></rect></g><path d="M274.56,391.44c.14,0,.26,10.83,.26,24.19s-.12,24.19-.26,24.19-.26-10.83-.26-24.19,.12-24.19,.26-24.19Z" style="fill:#fff;"></path><path d="M274.8,388.79c.14,0,.26,.27,.26,.6s-.12,.6-.26,.6-.26-.27-.26-.6,.12-.6,.26-.6Z" style="fill:#fff;"></path></g><g><rect x="195.6" y="380.78" width="71.23" height="71.23" rx="2.59" ry="2.59" style="fill:#2B6797;"></rect><g style="opacity:.4;"><rect x="195.6" y="380.78" width="71.23" height="71.23" rx="2.59" ry="2.59" style="fill:#fff;"></rect></g><g style="opacity:.4;"><path d="M259.96,411.42c-.03-.3-.07-.63-.27-.85-.41-.45-1.18-.21-1.63,.2-1.44,1.31-1.35,3.55-1.23,5.49,.35,5.66,.06,11.37-.86,16.96-.19,1.16-.42,2.35-1.04,3.35-.51,.81-1.25,1.45-2.01,2.03-2.47,1.85-5.34,3.17-8.35,3.83-1.76,.39-3.55,.55-5.34,.72-6.99,.65-13.97,1.29-20.96,1.94-1.59,.15-4.07,.92-4.94,2.27,14.01,.5,28.04,.41,42.05-.27,.68-.03,1.39-.07,2-.39,.77-.4,1.27-1.18,1.63-1.96,1.05-2.27,1.26-4.83,1.4-7.33,.5-8.65,.35-17.35-.45-25.98Z" style="fill:#fff;"></path></g><path d="M199.76,391.44c.14,0,.26,10.83,.26,24.19s-.12,24.19-.26,24.19-.26-10.83-.26-24.19,.12-24.19,.26-24.19Z" style="fill:#fff;"></path><path d="M200,388.79c.14,0,.26,.27,.26,.6s-.12,.6-.26,.6-.26-.27-.26-.6,.12-.6,.26-.6Z" style="fill:#fff;"></path></g><g><rect x="345.2" y="380.78" width="71.23" height="71.23" rx="2.59" ry="2.59" style="fill:#2B6797;"></rect><g style="opacity:.4;"><rect x="345.2" y="380.78" width="71.23" height="71.23" rx="2.59" ry="2.59" style="fill:#fff;"></rect></g><g style="opacity:.4;"><path d="M409.55,411.42c-.03-.3-.07-.63-.27-.85-.41-.45-1.18-.21-1.63,.2-1.44,1.31-1.35,3.55-1.23,5.49,.35,5.66,.06,11.37-.86,16.96-.19,1.16-.42,2.35-1.04,3.35-.51,.81-1.25,1.45-2.01,2.03-2.47,1.85-5.34,3.17-8.35,3.83-1.76,.39-3.55,.55-5.34,.72-6.99,.65-13.97,1.29-20.96,1.94-1.59,.15-4.07,.92-4.94,2.27,14.01,.5,28.04,.41,42.05-.27,.68-.03,1.39-.07,2-.39,.77-.4,1.27-1.18,1.63-1.96,1.05-2.27,1.26-4.83,1.4-7.33,.5-8.65,.34-17.35-.45-25.98Z" style="fill:#fff;"></path></g><path d="M349.36,391.44c.14,0,.26,10.83,.26,24.19s-.12,24.19-.26,24.19-.26-10.83-.26-24.19,.12-24.19,.26-24.19Z" style="fill:#fff;"></path><path d="M349.6,388.79c.14,0,.26,.27,.26,.6s-.12,.6-.26,.6-.26-.27-.26-.6,.12-.6,.26-.6Z" style="fill:#fff;"></path></g><g><rect x="420.29" y="380.78" width="71.23" height="71.23" rx="2.59" ry="2.59" style="fill:#2B6797;"></rect><g style="opacity:.4;"><rect x="420.29" y="380.78" width="71.23" height="71.23" rx="2.59" ry="2.59" style="fill:#fff;"></rect></g><g style="opacity:.4;"><path d="M484.65,411.42c-.03-.3-.07-.63-.27-.85-.41-.45-1.18-.21-1.63,.2-1.44,1.31-1.35,3.55-1.23,5.49,.35,5.66,.06,11.37-.86,16.96-.19,1.16-.42,2.35-1.04,3.35-.51,.81-1.25,1.45-2.01,2.03-2.47,1.85-5.34,3.17-8.35,3.83-1.76,.39-3.55,.55-5.34,.72-6.99,.65-13.97,1.29-20.96,1.94-1.59,.15-4.07,.92-4.94,2.27,14.01,.5,28.04,.41,42.05-.27,.68-.03,1.39-.07,2-.39,.77-.4,1.27-1.18,1.63-1.96,1.05-2.27,1.26-4.83,1.4-7.33,.5-8.65,.34-17.35-.45-25.98Z" style="fill:#fff;"></path></g><path d="M424.45,391.44c.14,0,.26,10.83,.26,24.19s-.12,24.19-.26,24.19-.26-10.83-.26-24.19,.12-24.19,.26-24.19Z" style="fill:#fff;"></path><path d="M424.69,388.79c.14,0,.26,.27,.26,.6s-.12,.6-.26,.6-.26-.27-.26-.6,.12-.6,.26-.6Z" style="fill:#fff;"></path></g><path d="M255.82,229.22c0,.14-10.98,.26-24.52,.26s-24.52-.12-24.52-.26,10.98-.26,24.52-.26,24.52,.12,24.52,.26Z" style="fill:#fff;"></path><g style="opacity:.4;"><path d="M270.29,439.47l46.31-58.7h24.04l-56.48,71.23h-10.49c-1.86,0-3.37-1.5-3.37-3.36l-.02-9.17Z" style="fill:#fff;"></path></g><g style="opacity:.4;"><polygon points="341.63 396.9 296.96 452.01 305.47 452.01 341.63 405.83 341.63 396.9" style="fill:#fff;"></polygon></g><g><path d="M340.03,172.3s-.26,.02-.77,0c-.5-.05-1.24-.17-2.14-.49-.91-.31-1.96-.82-3.15-1.47-1.19-.64-2.51-1.43-4.04-2.12-1.51-.68-3.35-1.26-5.26-.77-1.91,.44-3.76,1.53-5.71,2.64-.98,.55-1.99,1.13-3.08,1.6-1.09,.47-2.29,.85-3.57,.87-1.28,.02-2.53-.36-3.71-.87-1.18-.51-2.3-1.15-3.43-1.78-2.23-1.25-4.49-2.6-6.88-2.6-2.38,.06-4.48,1.32-6.42,2.38-1.95,1.09-3.84,2.2-5.85,2.64-1,.24-2.03,.22-2.95,.02-.93-.18-1.78-.52-2.56-.88-1.56-.73-2.86-1.55-4.03-2.21-1.17-.67-2.2-1.2-3.08-1.53-1.76-.71-2.85-.61-2.84-.68,0-.02,.26-.02,.77,0,.5,.05,1.24,.17,2.14,.49,.91,.31,1.96,.82,3.15,1.47,1.19,.64,2.51,1.43,4.04,2.12,1.51,.68,3.35,1.26,5.26,.77,1.91-.44,3.76-1.53,5.71-2.64,.98-.55,1.99-1.13,3.08-1.6,1.09-.47,2.29-.85,3.57-.87,1.28-.02,2.53,.37,3.71,.87,1.18,.51,2.3,1.15,3.43,1.79,2.23,1.25,4.49,2.59,6.87,2.59,2.38-.06,4.48-1.32,6.42-2.38,1.95-1.09,3.84-2.2,5.85-2.64,1-.24,2.03-.22,2.95-.02,.93,.18,1.78,.52,2.56,.88,1.56,.73,2.86,1.55,4.03,2.21,1.17,.67,2.2,1.2,3.08,1.53,1.76,.71,2.85,.61,2.84,.68Z" style="fill:#e0e0e0;"></path><path d="M340.03,165.99s-.26,.02-.77,0c-.5-.05-1.24-.17-2.14-.49-.91-.31-1.96-.82-3.15-1.47-1.19-.64-2.51-1.43-4.04-2.12-1.51-.68-3.35-1.26-5.26-.77-1.91,.44-3.76,1.53-5.71,2.64-.98,.55-1.99,1.13-3.08,1.6-1.09,.47-2.29,.85-3.57,.87-1.28,.02-2.53-.36-3.71-.87-1.18-.51-2.3-1.15-3.43-1.78-2.23-1.25-4.49-2.6-6.88-2.6-2.38,.06-4.48,1.32-6.42,2.38-1.95,1.09-3.84,2.2-5.85,2.64-1,.24-2.03,.22-2.95,.02-.93-.18-1.78-.52-2.56-.88-1.56-.73-2.86-1.55-4.03-2.21-1.17-.67-2.2-1.2-3.08-1.53-1.76-.71-2.85-.61-2.84-.68,0-.02,.26-.02,.77,0,.5,.05,1.24,.17,2.14,.49,.91,.31,1.96,.82,3.15,1.47,1.19,.64,2.51,1.43,4.04,2.12,1.51,.68,3.35,1.26,5.26,.77,1.91-.44,3.76-1.53,5.71-2.64,.98-.55,1.99-1.13,3.08-1.6,1.09-.47,2.29-.85,3.57-.87,1.28-.02,2.53,.37,3.71,.87,1.18,.51,2.3,1.15,3.43,1.79,2.23,1.25,4.49,2.59,6.87,2.59,2.38-.06,4.48-1.32,6.42-2.38,1.95-1.09,3.84-2.2,5.85-2.64,1-.24,2.03-.22,2.95-.02,.93,.18,1.78,.52,2.56,.88,1.56,.73,2.86,1.55,4.03,2.21,1.17,.67,2.2,1.2,3.08,1.53,1.76,.71,2.85,.61,2.84,.68Z" style="fill:#e0e0e0;"></path><path d="M340.03,180.33s-.26,.02-.77,0c-.5-.05-1.24-.17-2.14-.49-.91-.31-1.96-.82-3.15-1.47-1.19-.64-2.51-1.43-4.04-2.12-1.51-.68-3.35-1.26-5.26-.77-1.91,.44-3.76,1.53-5.71,2.64-.98,.55-1.99,1.13-3.08,1.6-1.09,.47-2.29,.85-3.57,.87-1.28,.02-2.53-.36-3.71-.87-1.18-.51-2.3-1.15-3.43-1.78-2.23-1.25-4.49-2.6-6.88-2.6-2.38,.06-4.48,1.32-6.42,2.38-1.95,1.09-3.84,2.2-5.85,2.64-1,.24-2.03,.22-2.95,.02-.93-.18-1.78-.52-2.56-.88-1.56-.73-2.86-1.55-4.03-2.21-1.17-.67-2.2-1.2-3.08-1.53-1.76-.71-2.85-.61-2.84-.68,0-.02,.26-.02,.77,0,.5,.05,1.24,.17,2.14,.49,.91,.31,1.96,.82,3.15,1.47,1.19,.64,2.51,1.43,4.04,2.12,1.51,.68,3.35,1.26,5.26,.77,1.91-.44,3.76-1.53,5.71-2.64,.98-.55,1.99-1.13,3.08-1.6,1.09-.47,2.29-.85,3.57-.87,1.28-.02,2.53,.37,3.71,.87,1.18,.51,2.3,1.15,3.43,1.79,2.23,1.25,4.49,2.59,6.87,2.59,2.38-.06,4.48-1.32,6.42-2.38,1.95-1.09,3.84-2.2,5.85-2.64,1-.24,2.03-.22,2.95-.02,.93,.18,1.78,.52,2.56,.88,1.56,.73,2.86,1.55,4.03,2.21,1.17,.67,2.2,1.2,3.08,1.53,1.76,.71,2.85,.61,2.84,.68Z" style="fill:#e0e0e0;"></path><path d="M340.03,188.37s-.26,.02-.77,0c-.5-.05-1.24-.17-2.14-.49-.91-.31-1.96-.82-3.15-1.47-1.19-.64-2.51-1.43-4.04-2.13-1.51-.68-3.35-1.26-5.26-.77-1.91,.44-3.76,1.53-5.71,2.64-.98,.55-1.99,1.13-3.08,1.6-1.09,.47-2.29,.85-3.57,.87-1.28,.02-2.53-.36-3.71-.87-1.18-.51-2.3-1.15-3.43-1.78-2.23-1.25-4.49-2.6-6.88-2.6-2.38,.06-4.48,1.32-6.42,2.38-1.95,1.09-3.84,2.2-5.85,2.64-1,.24-2.03,.22-2.95,.02-.93-.18-1.78-.52-2.56-.88-1.56-.73-2.86-1.55-4.03-2.21-1.17-.67-2.2-1.2-3.08-1.53-1.76-.71-2.85-.61-2.84-.68,0-.02,.26-.02,.77,0,.5,.05,1.24,.17,2.14,.49,.91,.31,1.96,.82,3.15,1.47,1.19,.64,2.51,1.43,4.04,2.12,1.51,.68,3.35,1.26,5.26,.77,1.91-.44,3.76-1.53,5.71-2.64,.98-.55,1.99-1.13,3.08-1.6,1.09-.47,2.29-.85,3.57-.87,1.28-.02,2.53,.37,3.71,.87,1.18,.51,2.3,1.15,3.43,1.79,2.23,1.25,4.49,2.59,6.87,2.59,2.38-.06,4.48-1.32,6.42-2.38,1.95-1.09,3.84-2.2,5.85-2.64,1-.24,2.03-.22,2.95-.02,.93,.18,1.78,.52,2.56,.88,1.56,.73,2.86,1.55,4.03,2.21,1.17,.67,2.2,1.2,3.08,1.53,1.76,.71,2.85,.61,2.84,.68Z" style="fill:#e0e0e0;"></path><path d="M340.03,196.4s-.26,.02-.77,0c-.5-.05-1.24-.17-2.14-.49-.91-.31-1.96-.82-3.15-1.47-1.19-.64-2.51-1.43-4.04-2.12-1.51-.68-3.35-1.26-5.26-.77-1.91,.44-3.76,1.53-5.71,2.64-.98,.55-1.99,1.13-3.08,1.6-1.09,.47-2.29,.85-3.57,.87-1.28,.02-2.53-.36-3.71-.87-1.18-.51-2.3-1.15-3.43-1.78-2.23-1.25-4.49-2.6-6.88-2.6-2.38,.06-4.48,1.32-6.42,2.38-1.95,1.09-3.84,2.2-5.85,2.64-1,.24-2.03,.22-2.95,.02-.93-.18-1.78-.52-2.56-.88-1.56-.73-2.86-1.55-4.03-2.21-1.17-.67-2.2-1.2-3.08-1.53-1.76-.71-2.85-.61-2.84-.68,0-.02,.26-.02,.77,0,.5,.05,1.24,.17,2.14,.49,.91,.31,1.96,.82,3.15,1.47,1.19,.64,2.51,1.43,4.04,2.12,1.51,.68,3.35,1.26,5.26,.77,1.91-.44,3.76-1.53,5.71-2.64,.98-.55,1.99-1.13,3.08-1.6,1.09-.47,2.29-.85,3.57-.87,1.28-.02,2.53,.37,3.71,.87,1.18,.51,2.3,1.15,3.43,1.79,2.23,1.25,4.49,2.59,6.87,2.59,2.38-.06,4.48-1.32,6.42-2.38,1.95-1.09,3.84-2.2,5.85-2.64,1-.24,2.03-.22,2.95-.02,.93,.18,1.78,.52,2.56,.88,1.56,.73,2.86,1.55,4.03,2.21,1.17,.67,2.2,1.2,3.08,1.53,1.76,.71,2.85,.61,2.84,.68Z" style="fill:#e0e0e0;"></path><path d="M340.03,204.44s-.26,.02-.77,0c-.5-.05-1.24-.17-2.14-.49-.91-.31-1.96-.82-3.15-1.47-1.19-.64-2.51-1.43-4.04-2.12-1.51-.68-3.35-1.26-5.26-.77-1.91,.44-3.76,1.53-5.71,2.64-.98,.55-1.99,1.13-3.08,1.6-1.09,.47-2.29,.85-3.57,.87-1.28,.02-2.53-.36-3.71-.87-1.18-.51-2.3-1.15-3.43-1.78-2.23-1.25-4.49-2.6-6.88-2.6-2.38,.06-4.48,1.32-6.42,2.38-1.95,1.09-3.84,2.2-5.85,2.64-1,.24-2.03,.22-2.95,.02-.93-.18-1.78-.52-2.56-.88-1.56-.73-2.86-1.55-4.03-2.21-1.17-.67-2.2-1.2-3.08-1.53-1.76-.71-2.85-.61-2.84-.68,0-.02,.26-.02,.77,0,.5,.05,1.24,.17,2.14,.49,.91,.31,1.96,.82,3.15,1.47,1.19,.64,2.51,1.43,4.04,2.12,1.51,.68,3.35,1.26,5.26,.77,1.91-.44,3.76-1.53,5.71-2.64,.98-.55,1.99-1.13,3.08-1.6,1.09-.47,2.29-.85,3.57-.87,1.28-.02,2.53,.37,3.71,.87,1.18,.51,2.3,1.15,3.43,1.79,2.23,1.25,4.49,2.59,6.87,2.59,2.38-.06,4.48-1.32,6.42-2.38,1.95-1.09,3.84-2.2,5.85-2.64,1-.24,2.03-.22,2.95-.02,.93,.18,1.78,.52,2.56,.88,1.56,.73,2.86,1.55,4.03,2.21,1.17,.67,2.2,1.2,3.08,1.53,1.76,.71,2.85,.61,2.84,.68Z" style="fill:#e0e0e0;"></path><path d="M340.03,212.47s-.26,.02-.77,0c-.5-.05-1.24-.17-2.14-.49-.91-.31-1.96-.82-3.15-1.47-1.19-.64-2.51-1.43-4.04-2.12-1.51-.68-3.35-1.26-5.26-.77-1.91,.44-3.76,1.53-5.71,2.64-.98,.55-1.99,1.13-3.08,1.6-1.09,.47-2.29,.85-3.57,.87-1.28,.02-2.53-.36-3.71-.87-1.18-.51-2.3-1.15-3.43-1.78-2.23-1.25-4.49-2.6-6.88-2.6-2.38,.06-4.48,1.32-6.42,2.38-1.95,1.09-3.84,2.2-5.85,2.64-1,.24-2.03,.22-2.95,.02-.93-.18-1.78-.52-2.56-.88-1.56-.73-2.86-1.55-4.03-2.21-1.17-.67-2.2-1.2-3.08-1.53-1.76-.71-2.85-.61-2.84-.68,0-.02,.26-.02,.77,0,.5,.05,1.24,.17,2.14,.49,.91,.31,1.96,.82,3.15,1.47,1.19,.64,2.51,1.43,4.04,2.12,1.51,.68,3.35,1.26,5.26,.77,1.91-.44,3.76-1.53,5.71-2.64,.98-.55,1.99-1.13,3.08-1.6,1.09-.47,2.29-.85,3.57-.87,1.28-.02,2.53,.37,3.71,.87,1.18,.51,2.3,1.15,3.43,1.79,2.23,1.25,4.49,2.59,6.87,2.59,2.38-.06,4.48-1.32,6.42-2.38,1.95-1.09,3.84-2.2,5.85-2.64,1-.24,2.03-.22,2.95-.02,.93,.18,1.78,.52,2.56,.88,1.56,.73,2.86,1.55,4.03,2.21,1.17,.67,2.2,1.2,3.08,1.53,1.76,.71,2.85,.61,2.84,.68Z" style="fill:#e0e0e0;"></path><path d="M340.03,220.5s-.26,.02-.77,0c-.5-.05-1.24-.17-2.14-.49-.91-.31-1.96-.82-3.15-1.47-1.19-.64-2.51-1.43-4.04-2.12-1.51-.68-3.35-1.26-5.26-.77-1.91,.44-3.76,1.53-5.71,2.64-.98,.55-1.99,1.13-3.08,1.6-1.09,.47-2.29,.85-3.57,.87-1.28,.02-2.53-.36-3.71-.87-1.18-.51-2.3-1.15-3.43-1.78-2.23-1.25-4.49-2.6-6.88-2.6-2.38,.06-4.48,1.32-6.42,2.38-1.95,1.09-3.84,2.2-5.85,2.64-1,.24-2.03,.22-2.95,.02-.93-.18-1.78-.52-2.56-.88-1.56-.73-2.86-1.55-4.03-2.21-1.17-.67-2.2-1.2-3.08-1.53-1.76-.71-2.85-.61-2.84-.68,0-.02,.26-.02,.77,0,.5,.05,1.24,.17,2.14,.49,.91,.31,1.96,.82,3.15,1.47,1.19,.64,2.51,1.43,4.04,2.12,1.51,.68,3.35,1.26,5.26,.77,1.91-.44,3.76-1.53,5.71-2.64,.98-.55,1.99-1.13,3.08-1.6,1.09-.47,2.29-.85,3.57-.87,1.28-.02,2.53,.37,3.71,.87,1.18,.51,2.3,1.15,3.43,1.79,2.23,1.25,4.49,2.59,6.87,2.59,2.38-.06,4.48-1.32,6.42-2.38,1.95-1.09,3.84-2.2,5.85-2.64,1-.24,2.03-.22,2.95-.02,.93,.18,1.78,.52,2.56,.88,1.56,.73,2.86,1.55,4.03,2.21,1.17,.67,2.2,1.2,3.08,1.53,1.76,.71,2.85,.61,2.84,.68Z" style="fill:#e0e0e0;"></path><path d="M340.03,228.54s-.26,.02-.77,0c-.5-.05-1.24-.17-2.14-.49-.91-.31-1.96-.82-3.15-1.47-1.19-.64-2.51-1.43-4.04-2.12-1.51-.68-3.35-1.26-5.26-.77-1.91,.44-3.76,1.53-5.71,2.64-.98,.55-1.99,1.13-3.08,1.6-1.09,.47-2.29,.85-3.57,.87-1.28,.02-2.53-.36-3.71-.87-1.18-.51-2.3-1.15-3.43-1.78-2.23-1.25-4.49-2.6-6.88-2.6-2.38,.06-4.48,1.32-6.42,2.38-1.95,1.09-3.84,2.2-5.85,2.64-1,.24-2.03,.22-2.95,.02-.93-.18-1.78-.52-2.56-.88-1.56-.73-2.86-1.55-4.03-2.21-1.17-.67-2.2-1.2-3.08-1.53-1.76-.71-2.85-.61-2.84-.68,0-.02,.26-.02,.77,0,.5,.05,1.24,.17,2.14,.49,.91,.31,1.96,.82,3.15,1.47,1.19,.64,2.51,1.43,4.04,2.12,1.51,.68,3.35,1.26,5.26,.77,1.91-.44,3.76-1.53,5.71-2.64,.98-.55,1.99-1.13,3.08-1.6,1.09-.47,2.29-.85,3.57-.87,1.28-.02,2.53,.37,3.71,.87,1.18,.51,2.3,1.15,3.43,1.79,2.23,1.25,4.49,2.59,6.87,2.59,2.38-.06,4.48-1.32,6.42-2.38,1.95-1.09,3.84-2.2,5.85-2.64,1-.24,2.03-.22,2.95-.02,.93,.18,1.78,.52,2.56,.88,1.56,.73,2.86,1.55,4.03,2.21,1.17,.67,2.2,1.2,3.08,1.53,1.76,.71,2.85,.61,2.84,.68Z" style="fill:#e0e0e0;"></path></g><g><path d="M415,319.93s-.26,.02-.77,0c-.5-.05-1.24-.17-2.14-.49-.91-.31-1.96-.82-3.15-1.47-1.19-.64-2.51-1.43-4.04-2.12-1.51-.68-3.35-1.26-5.26-.77-1.91,.44-3.76,1.53-5.71,2.64-.98,.55-1.99,1.13-3.08,1.6-1.09,.47-2.29,.85-3.57,.87-1.28,.02-2.53-.36-3.71-.87-1.18-.51-2.3-1.15-3.43-1.78-2.23-1.25-4.49-2.6-6.88-2.6-2.38,.06-4.48,1.32-6.42,2.38-1.95,1.09-3.84,2.2-5.85,2.64-1,.24-2.03,.22-2.95,.02-.93-.18-1.78-.52-2.56-.88-1.56-.73-2.86-1.55-4.03-2.21-1.17-.67-2.2-1.2-3.08-1.53-1.76-.71-2.85-.61-2.84-.68,0-.02,.26-.02,.77,0,.5,.05,1.24,.17,2.14,.49,.91,.31,1.96,.82,3.15,1.47,1.19,.64,2.51,1.43,4.04,2.12,1.51,.68,3.35,1.26,5.26,.77,1.91-.44,3.76-1.53,5.71-2.64,.98-.55,1.99-1.13,3.08-1.6,1.09-.47,2.29-.85,3.57-.87,1.28-.02,2.53,.37,3.71,.87,1.18,.51,2.3,1.15,3.43,1.79,2.23,1.25,4.49,2.59,6.87,2.59,2.38-.06,4.48-1.32,6.42-2.38,1.95-1.09,3.84-2.2,5.85-2.64,1-.24,2.03-.22,2.95-.02,.93,.18,1.78,.52,2.56,.88,1.56,.73,2.86,1.55,4.03,2.21,1.17,.67,2.2,1.2,3.08,1.53,1.76,.71,2.85,.61,2.84,.68Z" style="fill:#e0e0e0;"></path><path d="M415,313.62s-.26,.02-.77,0c-.5-.05-1.24-.17-2.14-.49-.91-.31-1.96-.82-3.15-1.47-1.19-.64-2.51-1.43-4.04-2.12-1.51-.68-3.35-1.26-5.26-.77-1.91,.44-3.76,1.53-5.71,2.64-.98,.55-1.99,1.13-3.08,1.6-1.09,.47-2.29,.85-3.57,.87-1.28,.02-2.53-.36-3.71-.87-1.18-.51-2.3-1.15-3.43-1.78-2.23-1.25-4.49-2.6-6.88-2.6-2.38,.06-4.48,1.32-6.42,2.38-1.95,1.09-3.84,2.2-5.85,2.64-1,.24-2.03,.22-2.95,.02-.93-.18-1.78-.52-2.56-.88-1.56-.73-2.86-1.55-4.03-2.21-1.17-.67-2.2-1.2-3.08-1.53-1.76-.71-2.85-.61-2.84-.68,0-.02,.26-.02,.77,0,.5,.05,1.24,.17,2.14,.49,.91,.31,1.96,.82,3.15,1.47,1.19,.64,2.51,1.43,4.04,2.12,1.51,.68,3.35,1.26,5.26,.77,1.91-.44,3.76-1.53,5.71-2.64,.98-.55,1.99-1.13,3.08-1.6,1.09-.47,2.29-.85,3.57-.87,1.28-.02,2.53,.37,3.71,.87,1.18,.51,2.3,1.15,3.43,1.79,2.23,1.25,4.49,2.59,6.87,2.59,2.38-.06,4.48-1.32,6.42-2.38,1.95-1.09,3.84-2.2,5.85-2.64,1-.24,2.03-.22,2.95-.02,.93,.18,1.78,.52,2.56,.88,1.56,.73,2.86,1.55,4.03,2.21,1.17,.67,2.2,1.2,3.08,1.53,1.76,.71,2.85,.61,2.84,.68Z" style="fill:#e0e0e0;"></path><path d="M415,327.96s-.26,.02-.77,0c-.5-.05-1.24-.17-2.14-.49-.91-.31-1.96-.82-3.15-1.47-1.19-.64-2.51-1.43-4.04-2.12-1.51-.68-3.35-1.26-5.26-.77-1.91,.44-3.76,1.53-5.71,2.64-.98,.55-1.99,1.13-3.08,1.6-1.09,.47-2.29,.85-3.57,.87-1.28,.02-2.53-.36-3.71-.87-1.18-.51-2.3-1.15-3.43-1.78-2.23-1.25-4.49-2.6-6.88-2.6-2.38,.06-4.48,1.32-6.42,2.38-1.95,1.09-3.84,2.2-5.85,2.64-1,.24-2.03,.22-2.95,.02-.93-.18-1.78-.52-2.56-.88-1.56-.73-2.86-1.55-4.03-2.21-1.17-.67-2.2-1.2-3.08-1.53-1.76-.71-2.85-.61-2.84-.68,0-.02,.26-.02,.77,0,.5,.05,1.24,.17,2.14,.49,.91,.31,1.96,.82,3.15,1.47,1.19,.64,2.51,1.43,4.04,2.12,1.51,.68,3.35,1.26,5.26,.77,1.91-.44,3.76-1.53,5.71-2.64,.98-.55,1.99-1.13,3.08-1.6,1.09-.47,2.29-.85,3.57-.87,1.28-.02,2.53,.37,3.71,.87,1.18,.51,2.3,1.15,3.43,1.79,2.23,1.25,4.49,2.59,6.87,2.59,2.38-.06,4.48-1.32,6.42-2.38,1.95-1.09,3.84-2.2,5.85-2.64,1-.24,2.03-.22,2.95-.02,.93,.18,1.78,.52,2.56,.88,1.56,.73,2.86,1.55,4.03,2.21,1.17,.67,2.2,1.2,3.08,1.53,1.76,.71,2.85,.61,2.84,.68Z" style="fill:#e0e0e0;"></path><path d="M415,336s-.26,.02-.77,0c-.5-.05-1.24-.17-2.14-.49-.91-.31-1.96-.82-3.15-1.47-1.19-.64-2.51-1.43-4.04-2.12-1.51-.68-3.35-1.26-5.26-.77-1.91,.44-3.76,1.53-5.71,2.64-.98,.55-1.99,1.13-3.08,1.6-1.09,.47-2.29,.85-3.57,.87-1.28,.02-2.53-.36-3.71-.87-1.18-.51-2.3-1.15-3.43-1.78-2.23-1.25-4.49-2.6-6.88-2.6-2.38,.06-4.48,1.32-6.42,2.38-1.95,1.09-3.84,2.2-5.85,2.64-1,.24-2.03,.22-2.95,.02-.93-.18-1.78-.52-2.56-.88-1.56-.73-2.86-1.55-4.03-2.21-1.17-.67-2.2-1.2-3.08-1.53-1.76-.71-2.85-.61-2.84-.68,0-.02,.26-.02,.77,0,.5,.05,1.24,.17,2.14,.49,.91,.31,1.96,.82,3.15,1.47,1.19,.64,2.51,1.43,4.04,2.12,1.51,.68,3.35,1.26,5.26,.77,1.91-.44,3.76-1.53,5.71-2.64,.98-.55,1.99-1.13,3.08-1.6,1.09-.47,2.29-.85,3.57-.87,1.28-.02,2.53,.37,3.71,.87,1.18,.51,2.3,1.15,3.43,1.79,2.23,1.25,4.49,2.59,6.87,2.59,2.38-.06,4.48-1.32,6.42-2.38,1.95-1.09,3.84-2.2,5.85-2.64,1-.24,2.03-.22,2.95-.02,.93,.18,1.78,.52,2.56,.88,1.56,.73,2.86,1.55,4.03,2.21,1.17,.67,2.2,1.2,3.08,1.53,1.76,.71,2.85,.61,2.84,.68Z" style="fill:#e0e0e0;"></path><path d="M415,344.03s-.26,.02-.77,0c-.5-.05-1.24-.17-2.14-.49-.91-.31-1.96-.82-3.15-1.47-1.19-.64-2.51-1.43-4.04-2.13-1.51-.68-3.35-1.26-5.26-.77-1.91,.44-3.76,1.53-5.71,2.64-.98,.55-1.99,1.13-3.08,1.6-1.09,.47-2.29,.85-3.57,.87-1.28,.02-2.53-.36-3.71-.87-1.18-.51-2.3-1.15-3.43-1.78-2.23-1.25-4.49-2.6-6.88-2.6-2.38,.06-4.48,1.32-6.42,2.38-1.95,1.09-3.84,2.2-5.85,2.64-1,.24-2.03,.22-2.95,.02-.93-.18-1.78-.52-2.56-.88-1.56-.73-2.86-1.55-4.03-2.21-1.17-.67-2.2-1.2-3.08-1.53-1.76-.71-2.85-.61-2.84-.68,0-.02,.26-.02,.77,0,.5,.05,1.24,.17,2.14,.49,.91,.31,1.96,.82,3.15,1.47,1.19,.64,2.51,1.43,4.04,2.13,1.51,.68,3.35,1.26,5.26,.77,1.91-.44,3.76-1.53,5.71-2.64,.98-.55,1.99-1.13,3.08-1.6,1.09-.47,2.29-.85,3.57-.87,1.28-.02,2.53,.37,3.71,.87,1.18,.51,2.3,1.15,3.43,1.79,2.23,1.25,4.49,2.59,6.87,2.59,2.38-.06,4.48-1.32,6.42-2.38,1.95-1.09,3.84-2.2,5.85-2.64,1-.24,2.03-.22,2.95-.02,.93,.18,1.78,.52,2.56,.88,1.56,.73,2.86,1.55,4.03,2.21,1.17,.67,2.2,1.2,3.08,1.53,1.76,.71,2.85,.61,2.84,.68Z" style="fill:#e0e0e0;"></path><path d="M415,352.06s-.26,.02-.77,0c-.5-.05-1.24-.17-2.14-.49-.91-.31-1.96-.82-3.15-1.47-1.19-.64-2.51-1.43-4.04-2.12-1.51-.68-3.35-1.26-5.26-.77-1.91,.44-3.76,1.53-5.71,2.64-.98,.55-1.99,1.13-3.08,1.6-1.09,.47-2.29,.85-3.57,.87-1.28,.02-2.53-.36-3.71-.87-1.18-.51-2.3-1.15-3.43-1.78-2.23-1.25-4.49-2.6-6.88-2.6-2.38,.06-4.48,1.32-6.42,2.38-1.95,1.09-3.84,2.2-5.85,2.64-1,.24-2.03,.22-2.95,.02-.93-.18-1.78-.52-2.56-.88-1.56-.73-2.86-1.55-4.03-2.21-1.17-.67-2.2-1.2-3.08-1.53-1.76-.71-2.85-.61-2.84-.68,0-.02,.26-.02,.77,0,.5,.05,1.24,.17,2.14,.49,.91,.31,1.96,.82,3.15,1.47,1.19,.64,2.51,1.43,4.04,2.12,1.51,.68,3.35,1.26,5.26,.77,1.91-.44,3.76-1.53,5.71-2.64,.98-.55,1.99-1.13,3.08-1.6,1.09-.47,2.29-.85,3.57-.87,1.28-.02,2.53,.37,3.71,.87,1.18,.51,2.3,1.15,3.43,1.79,2.23,1.25,4.49,2.59,6.87,2.59,2.38-.06,4.48-1.32,6.42-2.38,1.95-1.09,3.84-2.2,5.85-2.64,1-.24,2.03-.22,2.95-.02,.93,.18,1.78,.52,2.56,.88,1.56,.73,2.86,1.55,4.03,2.21,1.17,.67,2.2,1.2,3.08,1.53,1.76,.71,2.85,.61,2.84,.68Z" style="fill:#e0e0e0;"></path><path d="M415,360.1s-.26,.02-.77,0c-.5-.05-1.24-.17-2.14-.49-.91-.31-1.96-.82-3.15-1.47-1.19-.64-2.51-1.43-4.04-2.12-1.51-.68-3.35-1.26-5.26-.77-1.91,.44-3.76,1.53-5.71,2.64-.98,.55-1.99,1.13-3.08,1.6-1.09,.47-2.29,.85-3.57,.87-1.28,.02-2.53-.36-3.71-.87-1.18-.51-2.3-1.15-3.43-1.78-2.23-1.25-4.49-2.6-6.88-2.6-2.38,.06-4.48,1.32-6.42,2.38-1.95,1.09-3.84,2.2-5.85,2.64-1,.24-2.03,.22-2.95,.02-.93-.18-1.78-.52-2.56-.88-1.56-.73-2.86-1.55-4.03-2.21-1.17-.67-2.2-1.2-3.08-1.53-1.76-.71-2.85-.61-2.84-.68,0-.02,.26-.02,.77,0,.5,.05,1.24,.17,2.14,.49,.91,.31,1.96,.82,3.15,1.47,1.19,.64,2.51,1.43,4.04,2.12,1.51,.68,3.35,1.26,5.26,.77,1.91-.44,3.76-1.53,5.71-2.64,.98-.55,1.99-1.13,3.08-1.6,1.09-.47,2.29-.85,3.57-.87,1.28-.02,2.53,.37,3.71,.87,1.18,.51,2.3,1.15,3.43,1.79,2.23,1.25,4.49,2.59,6.87,2.59,2.38-.06,4.48-1.32,6.42-2.38,1.95-1.09,3.84-2.2,5.85-2.64,1-.24,2.03-.22,2.95-.02,.93,.18,1.78,.52,2.56,.88,1.56,.73,2.86,1.55,4.03,2.21,1.17,.67,2.2,1.2,3.08,1.53,1.76,.71,2.85,.61,2.84,.68Z" style="fill:#e0e0e0;"></path><path d="M415,368.13s-.26,.02-.77,0c-.5-.05-1.24-.17-2.14-.49-.91-.31-1.96-.82-3.15-1.47-1.19-.64-2.51-1.43-4.04-2.12-1.51-.68-3.35-1.26-5.26-.77-1.91,.44-3.76,1.53-5.71,2.64-.98,.55-1.99,1.13-3.08,1.6-1.09,.47-2.29,.85-3.57,.87-1.28,.02-2.53-.36-3.71-.87-1.18-.51-2.3-1.15-3.43-1.78-2.23-1.25-4.49-2.6-6.88-2.6-2.38,.06-4.48,1.32-6.42,2.38-1.95,1.09-3.84,2.2-5.85,2.64-1,.24-2.03,.22-2.95,.02-.93-.18-1.78-.52-2.56-.88-1.56-.73-2.86-1.55-4.03-2.21-1.17-.67-2.2-1.2-3.08-1.53-1.76-.71-2.85-.61-2.84-.68,0-.02,.26-.02,.77,0,.5,.05,1.24,.17,2.14,.49,.91,.31,1.96,.82,3.15,1.47,1.19,.64,2.51,1.43,4.04,2.12,1.51,.68,3.35,1.26,5.26,.77,1.91-.44,3.76-1.53,5.71-2.64,.98-.55,1.99-1.13,3.08-1.6,1.09-.47,2.29-.85,3.57-.87,1.28-.02,2.53,.37,3.71,.87,1.18,.51,2.3,1.15,3.43,1.79,2.23,1.25,4.49,2.59,6.87,2.59,2.38-.06,4.48-1.32,6.42-2.38,1.95-1.09,3.84-2.2,5.85-2.64,1-.24,2.03-.22,2.95-.02,.93,.18,1.78,.52,2.56,.88,1.56,.73,2.86,1.55,4.03,2.21,1.17,.67,2.2,1.2,3.08,1.53,1.76,.71,2.85,.61,2.84,.68Z" style="fill:#e0e0e0;"></path><path d="M415,376.17s-.26,.02-.77,0c-.5-.05-1.24-.17-2.14-.49-.91-.31-1.96-.82-3.15-1.47-1.19-.64-2.51-1.43-4.04-2.12-1.51-.68-3.35-1.26-5.26-.77-1.91,.44-3.76,1.53-5.71,2.64-.98,.55-1.99,1.13-3.08,1.6-1.09,.47-2.29,.85-3.57,.87-1.28,.02-2.53-.36-3.71-.87-1.18-.51-2.3-1.15-3.43-1.78-2.23-1.25-4.49-2.6-6.88-2.6-2.38,.06-4.48,1.32-6.42,2.38-1.95,1.09-3.84,2.2-5.85,2.64-1,.24-2.03,.22-2.95,.02-.93-.18-1.78-.52-2.56-.88-1.56-.73-2.86-1.55-4.03-2.21-1.17-.67-2.2-1.2-3.08-1.53-1.76-.71-2.85-.61-2.84-.68,0-.02,.26-.02,.77,0,.5,.05,1.24,.17,2.14,.49,.91,.31,1.96,.82,3.15,1.47,1.19,.64,2.51,1.43,4.04,2.12,1.51,.68,3.35,1.26,5.26,.77,1.91-.44,3.76-1.53,5.71-2.64,.98-.55,1.99-1.13,3.08-1.6,1.09-.47,2.29-.85,3.57-.87,1.28-.02,2.53,.37,3.71,.87,1.18,.51,2.3,1.15,3.43,1.79,2.23,1.25,4.49,2.59,6.87,2.59,2.38-.06,4.48-1.32,6.42-2.38,1.95-1.09,3.84-2.2,5.85-2.64,1-.24,2.03-.22,2.95-.02,.93,.18,1.78,.52,2.56,.88,1.56,.73,2.86,1.55,4.03,2.21,1.17,.67,2.2,1.2,3.08,1.53,1.76,.71,2.85,.61,2.84,.68Z" style="fill:#e0e0e0;"></path></g><rect x="187.75" y="266.6" width="12.26" height="4.4" style="fill:#fff;"></rect><rect x="150.73" y="302.39" width="12.26" height="4.4" transform="translate(-147.73 461.45) rotate(-90)" style="fill:#fff;"></rect><rect x="261.73" y="266.6" width="12.26" height="4.4" style="fill:#fff;"></rect><rect x="224.71" y="302.39" width="12.26" height="4.4" transform="translate(-73.75 535.43) rotate(-90)" style="fill:#fff;"></rect><rect x="150.73" y="230.73" width="12.26" height="4.4" transform="translate(-76.07 389.8) rotate(-90)" style="fill:#fff;"></rect><rect x="224.71" y="230.73" width="12.26" height="4.4" transform="translate(-2.09 463.78) rotate(-90)" style="fill:#fff;"></rect><rect x="335.71" y="266.6" width="12.26" height="4.4" style="fill:#fff;"></rect><rect x="187.75" y="193.04" width="12.26" height="4.4" style="fill:#fff;"></rect><rect x="298.69" y="302.39" width="12.26" height="4.4" transform="translate(.23 609.41) rotate(-90)" style="fill:#fff;"></rect></g></g><g id="freepik--Bucket--inject-11"><g><path d="M330.73,453.36l-5.99-29.94h0c-4.96,0-9.26-3.43-10.36-8.27l-.61-2.71h106.53l-1.62,5.47c-.96,3.26-3.96,5.5-7.36,5.5h0l-6.49,29.94h-74.09Z" style="fill:#455a64;"></path><g style="opacity:.3;"><polygon points="324.74 423.43 325.61 428.86 410.13 428.86 411.31 423.43 324.74 423.43"></polygon></g><path d="M330.79,397.16c-.8-1.02-2.03-1.61-3.32-1.61h-1.11c-3.48,0-5.42,4.03-3.25,6.75l7.68,9.61c.27,.34,.69,.54,1.13,.54h10.97l-12.1-15.29Zm-1.27,6.34c-1.05,.73-2.78,.08-3.85-1.45-1.07-1.54-1.08-3.38-.03-4.11,1.06-.73,2.78-.08,3.85,1.45,1.07,1.54,1.08,3.38,.03,4.11Z" style="fill:#2B6797;"></path><g><path d="M383.96,412.23l-33.59,.16c.7,3.68,4.62,6.43,8.32,5.82,1.39-.23,2.95-.83,4.1-.01,.66,.47,.97,1.28,1.39,1.98,1.24,2.04,3.8,3.19,6.15,2.75s4.34-2.42,4.77-4.77c.12-.63,.23-1.41,.83-1.63,.32-.12,.67-.03,1,.05,1.59,.38,3.33,.39,4.78-.36,1.45-.75,2.51-2.38,2.24-3.99Z" style="fill:#e0e0e0;"></path><path d="M383.96,412.23s.11,.27,.08,.8c-.02,.52-.22,1.33-.86,2.13-.61,.81-1.73,1.54-3.17,1.75-.71,.11-1.49,.11-2.29,0-.78-.06-1.75-.61-2.12,.18-.19,.35-.23,.8-.33,1.26-.09,.47-.26,.94-.48,1.39-.43,.9-1.12,1.72-1.99,2.36-.87,.64-1.95,1.07-3.11,1.14-1.15,.07-2.36-.19-3.42-.78-1.07-.57-2-1.51-2.57-2.64-.29-.54-.58-1.07-1.03-1.4-.45-.33-1.04-.42-1.64-.37-1.2,.1-2.5,.62-3.89,.48-1.37-.1-2.7-.6-3.86-1.39-1.64-1.12-2.83-2.85-3.17-4.71l-.06-.31h.31c9.51,0,17.92,0,24.01,0,2.96,.02,5.35,.03,7.06,.04,.78,.01,1.41,.02,1.88,.03,.43,.01,.64,.02,.63,.03-.01,.01-.25,.03-.69,.04-.49,.01-1.13,.03-1.94,.05-1.72,.03-4.13,.06-7.11,.11-6.05,.06-14.39,.13-23.84,.22l.25-.31c.32,1.7,1.43,3.32,2.96,4.38,1.08,.74,2.33,1.21,3.6,1.3,1.27,.14,2.47-.35,3.81-.47,.66-.06,1.4,.04,1.97,.47,.58,.43,.88,1.04,1.17,1.57,.54,1.07,1.37,1.91,2.37,2.46,.99,.55,2.1,.8,3.16,.74,1.06-.06,2.07-.45,2.88-1.04,.82-.59,1.47-1.35,1.88-2.19,.21-.42,.37-.85,.46-1.29,.1-.44,.14-.92,.38-1.36,.12-.22,.31-.42,.56-.52,.25-.11,.51-.1,.73-.06,.44,.09,.81,.19,1.21,.25,.77,.12,1.52,.14,2.2,.05,1.37-.18,2.44-.84,3.05-1.59,.63-.75,.85-1.51,.91-2.01,.05-.52,0-.77,.03-.79Z" style="fill:#263238;"></path></g></g></g><g id="freepik--Character--inject-11"><g><g><g><path d="M456.06,160.34l-1.11,.84c-11.18,8.44-14,24.06-6.48,35.88,6.99,10.99,14.86,23.05,19.13,28.56,8.84,11.4,21.71,4.5,21.71,4.5l9.47,14.57,27.29-21.97-35.42-52.03c-8-12.73-22.08-18.69-34.58-10.34Z" style="fill:#ffbf9d;"></path><path d="M489.28,230.12s7.59-5.06,11.66-15.76c0,0,2.69,11.28-9.58,18.93l-2.08-3.16Z" style="fill:#ff9a6c;"></path><path d="M459.93,205.61c.62,.89,1.9,1.1,2.84,.46,.94-.63,1.2-1.87,.57-2.76-.63-.89-1.9-1.1-2.84-.46-.94,.64-1.2,1.87-.58,2.76Z" style="fill:#263238;"></path><path d="M455.2,200.82c.37,.06,.91-1.8,2.69-3.13,1.75-1.36,3.74-1.43,3.77-1.79,.02-.17-.48-.4-1.35-.38-.87,.01-2.12,.33-3.22,1.17-1.1,.84-1.72,1.94-1.94,2.76-.23,.83-.12,1.36,.05,1.38Z" style="fill:#263238;"></path><path d="M476.16,194.11c.63,.89,1.9,1.1,2.84,.46,.94-.63,1.2-1.87,.57-2.76-.63-.89-1.9-1.1-2.84-.46-.94,.64-1.2,1.87-.58,2.76Z" style="fill:#263238;"></path><path d="M472.83,188.01c.37,.06,.92-1.8,2.69-3.13,1.75-1.36,3.74-1.43,3.77-1.79,.02-.17-.48-.4-1.35-.38-.87,.01-2.12,.33-3.21,1.17-1.1,.84-1.72,1.94-1.94,2.76-.23,.83-.12,1.36,.05,1.38Z" style="fill:#263238;"></path><path d="M476.32,205.98c-.07-.11-1.31,.53-3.26,1.65-.49,.29-.98,.53-1.29,.28-.35-.25-.53-.88-.71-1.57-.4-1.41-.82-2.9-1.26-4.45-1.84-6.3-3.54-11.34-3.8-11.26-.25,.08,1.04,5.24,2.88,11.54,.47,1.55,.91,3.02,1.33,4.43,.22,.64,.36,1.45,1.1,1.95,.38,.25,.89,.24,1.24,.1,.36-.13,.61-.32,.85-.47,1.87-1.26,2.98-2.09,2.92-2.2Z" style="fill:#263238;"></path><path d="M466.16,182.37c.57,.27,1.72-1.36,3.54-2.83,1.79-1.51,3.63-2.35,3.44-2.94-.09-.28-.73-.43-1.67-.28-.94,.15-2.16,.63-3.25,1.53-1.08,.89-1.78,1.99-2.08,2.87-.31,.88-.26,1.52,0,1.66Z" style="fill:#263238;"></path><path d="M449.6,193.59c.68,.12,1.82-1.4,3.56-2.75,1.7-1.4,3.45-2.18,3.47-2.86,0-.32-.54-.54-1.48-.43-.93,.1-2.23,.6-3.41,1.55-1.18,.94-1.95,2.1-2.25,2.97-.31,.88-.2,1.45,.11,1.52Z" style="fill:#263238;"></path><path d="M445.58,190.94s-2.41-9.5-.2-13.81c2.67-5.22,7.97-1.97,11.13-6.12,3.16-4.15,5.7-9.14,12.15-9.14,7.05,0,6.75,3.97,10.88,8.87,16.77,19.86,24.97,22.86,18.68,12.29-.69-1.16,1.63-4.25-1.34-9.1-3.85-6.29-9-13.56-13.44-16.73-3.75-2.67-7.57-3.58-13.17-3.54-8.83,.06-16.66,5.83-21.54,10.35-4.87,4.51-10.45,18.26-3.15,26.92Z" style="fill:#263238;"></path><path d="M497.25,183.28c-1.27-1.83-.8-4.39,1.1-5.56,2.3-1.42,5.61-2,8.82,2.54,5.69,8.06-3.57,12.11-3.75,11.89-.12-.15-3.82-5.48-6.17-8.87Z" style="fill:#ffbf9d;"></path><path d="M503.03,187.89c.02-.05,.21,0,.52-.06,.31-.06,.76-.27,1.06-.72,.63-.91,.39-2.77-.59-4.25-.5-.75-1.14-1.34-1.81-1.73-.66-.42-1.33-.56-1.82-.33-.5,.2-.62,.67-.56,.97,.05,.3,.22,.43,.18,.47,0,.04-.27-.01-.44-.39-.08-.18-.12-.44-.04-.73,.08-.29,.31-.58,.63-.75,.65-.4,1.62-.22,2.35,.21,.77,.41,1.51,1.06,2.07,1.9,1.1,1.66,1.34,3.77,.41,4.93-.46,.55-1.06,.71-1.43,.69-.39-.02-.56-.17-.54-.21Z" style="fill:#ff9a6c;"></path><path d="M480.23,211.88c-.18-.33,2.06-1.39,2.75-4.05,.7-2.67-.68-4.94-.37-5.11,.13-.1,.69,.33,1.19,1.32,.5,.97,.86,2.57,.44,4.2-.43,1.63-1.49,2.75-2.38,3.25-.9,.53-1.57,.54-1.63,.38Z" style="fill:#263238;"></path></g><g><path d="M423.64,195.32s7.13,7.53,23.95,.25l-3.06-9.82-20.89,9.57Z" style="fill:#263238;"></path><path d="M444.16,189.76s.25-3.59,4.04-8.25c7.04-8.67,18.85-18.12,41.33-13.94l4.61,1.9s-4.82-7.05-7.83-9.89c-2.01-1.9-12.56-14.61-30.97-5.51,1.08-.53-23.55,13.31-11.19,35.7Z" style="fill:#455a64;"></path><path d="M440.43,182.13c12.19-10.47,26.09-17.51,41.6-15.7-8.74,1.84-19.34,7.3-25.89,13.37-6.55,6.07-13,12.61-21.2,16.15-3.7,1.6-8.54,2.31-11.3-.63l16.79-13.19Z" style="fill:#455a64;"></path><path d="M482.22,164.13s-.65,.15-1.83,.31c-.59,.07-1.31,.18-2.15,.33-.83,.14-1.79,.29-2.83,.53-2.09,.4-4.54,1.07-7.23,1.88-2.68,.87-5.58,1.94-8.55,3.25-5.94,2.65-10.97,5.75-14.44,8.21-.88,.6-1.65,1.19-2.33,1.69-.69,.5-1.26,.95-1.73,1.32-.94,.74-1.47,1.13-1.5,1.1-.03-.03,.45-.49,1.34-1.29,.44-.4,1-.88,1.67-1.41,.66-.53,1.41-1.15,2.28-1.77,3.43-2.57,8.46-5.75,14.45-8.43,2.99-1.32,5.93-2.39,8.64-3.23,2.72-.79,5.2-1.42,7.32-1.77,1.05-.21,2.01-.33,2.86-.44,.84-.12,1.57-.2,2.17-.23,1.2-.09,1.86-.11,1.86-.07Z" style="fill:#263238;"></path></g></g><g><g><path d="M480.99,413.73l1.31,33.28s-33.39,12.51-33.74,18.68l64.62-.22,.09-51.94-32.27,.2Z" style="fill:#263238;"></path><path d="M502.27,444.14c1.25,.34,2.12,1.74,1.83,3.01-.29,1.26-1.71,2.16-2.96,1.84-1.26-.32-2.35-1.97-1.93-3.19,.43-1.22,2.15-2.19,3.29-1.58" style="fill:#e0e0e0;"></path><g style="opacity:.6;"><path d="M513.17,465.47l-.2-5.24-61.88,2.17s-2.87,1.26-2.54,3.29l64.62-.22Z" style="fill:#fff;"></path></g><path d="M481.25,446.69c.01,.32,1.59,.45,3.15,1.46,1.58,.97,2.39,2.33,2.68,2.21,.29-.06-.19-1.95-2.09-3.14-1.89-1.21-3.8-.82-3.73-.53Z" style="fill:#e0e0e0;"></path><path d="M474.48,449.51c-.07,.31,1.3,.84,2.37,2.17,1.12,1.3,1.39,2.74,1.7,2.73,.3,.05,.51-1.8-.86-3.43-1.35-1.64-3.21-1.77-3.22-1.47Z" style="fill:#e0e0e0;"></path><path d="M470.66,457.64c.29,.07,.72-1.51-.1-3.24-.8-1.73-2.29-2.41-2.43-2.14-.18,.26,.78,1.18,1.43,2.61,.68,1.41,.78,2.74,1.09,2.77Z" style="fill:#e0e0e0;"></path><path d="M481.79,439.07c.13,.29,1.58-.15,3.36-.04,1.79,.08,3.18,.67,3.34,.4,.18-.23-1.18-1.39-3.28-1.5-2.1-.12-3.58,.89-3.42,1.13Z" style="fill:#e0e0e0;"></path></g><g><path d="M655.63,457.25l32.94-4.93s16.07,31.82,22.25,31.51l-7.27-64.21-51.64,5.58,3.71,32.06Z" style="fill:#263238;"></path><path d="M683.54,432.78c.2-1.28,1.5-2.3,2.79-2.15,1.29,.15,2.33,1.46,2.16,2.74-.18,1.28-1.7,2.55-2.96,2.26-1.26-.29-2.41-1.9-1.93-3.1" style="fill:#e0e0e0;"></path><g style="opacity:.6;"><path d="M703.55,419.62l-5.18,.77,8.9,61.28s1.57,2.72,3.54,2.17l-7.27-64.21Z" style="fill:#fff;"></path></g><path d="M688.36,453.4c.31-.05,.28-1.63,1.11-3.29,.79-1.68,2.06-2.63,1.9-2.9-.09-.28-1.92,.4-2.89,2.42-.99,2.01-.4,3.87-.12,3.77Z" style="fill:#e0e0e0;"></path><path d="M691.91,459.82c.31,.04,.69-1.38,1.9-2.6,1.17-1.25,2.57-1.68,2.52-1.99,.02-.3-1.84-.31-3.31,1.23-1.48,1.53-1.41,3.38-1.11,3.36Z" style="fill:#e0e0e0;"></path><path d="M700.4,462.73c.03-.29-1.58-.55-3.21,.45-1.63,.99-2.14,2.54-1.87,2.65,.28,.15,1.09-.91,2.44-1.71,1.33-.83,2.64-1.07,2.64-1.39Z" style="fill:#e0e0e0;"></path></g><path d="M501.88,221.71s4.34-13.5,12.47-14.62,17.78-.73,24.38,1.68c7.75,2.83,22.82,10.68,35.76,28.86,11.46,16.09,29.38,42.11,36.89,57.62,4.32,8.92,14.13,23.92,6.39,25.67l-8.98-2.39-70.95,.26-27.55-46.81c-.86,.53-8.41-50.27-8.41-50.27Z" style="fill:#2B6797;"></path><g><g><g><path d="M554.17,359.21s8.91,81.66,11.78,88.62c2.86,6.95,6.54,12.27,18.81,14.72,12.27,2.45,96.61-1.5,96.61-1.5l-4.5-41.31-66.27-1.72s.42-22.82,.83-31.41c.41-8.59-.81-22.52,3.03-45.21,3.21-18.97-60.29,17.8-60.29,17.8Z" style="fill:#263238;"></path><g style="opacity:.3;"><path d="M559.85,370.96l-.05,.35c7.04,5.4,19.96,8.32,28.83,7.81,8.86-.51,18.44-7.55,20.73-13.9-15.67,4.44-33.27,6.92-49.51,5.74Z"></path></g></g><path d="M621.77,316.43c-4.91-5.73-72.29,2.05-72.29,2.05,0,0-57.63,1.32-67.44,2.95-9.82,1.64-13.93,16.62-13.93,26.85s6.36,95.75,6.36,95.75h40.92c-.41-7.36-.91-72.56-.91-72.56,0,0,20.2,.71,40.1,1.88,6.23,.36,30.7-.24,33.82-.63,13.09-1.64,23.68-7.53,28.1-14.81,13.33-21.95,5.27-41.48,5.27-41.48Z" style="fill:#263238;"></path></g><path d="M594.03,372.49s-.27,.07-.8,.12c-.63,.05-1.39,.11-2.31,.18-2,.14-4.9,.28-8.49,.41-7.17,.26-17.09,.39-28.04,.15-10.95-.24-20.86-.79-28.02-1.31-3.58-.26-6.47-.5-8.47-.71-.92-.1-1.67-.18-2.3-.25-.52-.07-.8-.12-.8-.15,0-.03,.28-.04,.81-.03l2.31,.09c2.13,.11,5,.26,8.48,.44,7.16,.37,17.06,.82,28,1.06,10.94,.24,20.84,.21,28.01,.1,3.49-.06,6.35-.11,8.49-.14,.92,0,1.68-.01,2.31-.02,.53,0,.81,.02,.81,.05Z" style="fill:#455a64;"></path><path d="M600.49,435.59c-.2-.06,1.14-4.65,4.08-9.72,2.92-5.09,6.21-8.55,6.37-8.41,.2,.16-2.76,3.82-5.63,8.83-2.89,4.99-4.57,9.39-4.81,9.3Z" style="fill:#455a64;"></path><path d="M498.03,357.81c.1-.19,4.25,2.11,8.53,6.05,4.3,3.92,6.96,7.84,6.78,7.96-.2,.16-3.13-3.48-7.36-7.33-4.21-3.87-8.1-6.46-7.96-6.68Z" style="fill:#455a64;"></path></g><path d="M618.53,306.31c-5.41-12.17-12.37-23.5-12.37-23.5l-20.7-32.3c-2.28-3.56-4.8-6.96-7.54-10.19-7.16-8.41-19.36-22.01-23.76-23.23,12.64,16.39,24.27,31.05,31.44,44.57,6.26,11.81-1.11,26.26-14.31,28.32-1.1,.17-2.21,.34-3.34,.53-19.68,3.23-51.03-28.32-51.03-28.32l-7.9,16.67,26.99,39.98s79.72,51.61,87.03,22.91c3.75-14.71,.16-24.94-4.51-35.44Z" style="fill:#263238;"></path><path d="M535.47,318.85c0-.14,12.75-.26,28.48-.26s28.49,.12,28.49,.26-12.75,.26-28.49,.26-28.48-.12-28.48-.26Z" style="fill:#455a64;"></path></g><g><g><rect x="400.04" y="260.19" width="71.23" height="71.23" rx="2.59" ry="2.59" transform="translate(-87.67 237.25) rotate(-27.79)" style="fill:#2B6797;"></rect><g style="opacity:.5;"><rect x="400.04" y="260.19" width="71.23" height="71.23" rx="2.59" ry="2.59" transform="translate(-87.67 237.25) rotate(-27.79)" style="fill:#fff;"></rect></g><g style="opacity:.4;"><path d="M458.76,278.01c-.17-.25-.35-.52-.64-.63-.57-.21-1.14,.36-1.35,.94-.66,1.83,.46,3.77,1.47,5.43,2.95,4.85,5.35,10.03,7.15,15.41,.37,1.12,.72,2.27,.64,3.45-.07,.95-.43,1.87-.84,2.73-1.32,2.79-3.24,5.29-5.6,7.29-1.37,1.16-2.88,2.14-4.39,3.13-5.88,3.83-11.76,7.66-17.64,11.48-1.34,.87-3.17,2.71-3.31,4.31,12.63-6.09,25-12.72,37.07-19.85,.59-.35,1.2-.72,1.59-1.28,.5-.71,.57-1.63,.53-2.5-.13-2.5-1.14-4.86-2.18-7.14-3.6-7.89-7.78-15.51-12.51-22.77Z" style="fill:#fff;"></path></g><path d="M396.19,288.4c.13-.07,5.28,9.46,11.51,21.27,6.23,11.82,11.17,21.45,11.05,21.52s-5.28-9.46-11.51-21.28c-6.23-11.82-11.17-21.45-11.05-21.52Z" style="fill:#fff;"></path><path d="M395.17,285.95c.13-.07,.36,.12,.51,.41,.15,.29,.18,.59,.05,.65-.13,.07-.36-.12-.51-.41-.15-.29-.18-.59-.05-.65Z" style="fill:#fff;"></path></g><g><path d="M496.02,256.09c1.31,.16-10.25,36.15-10.25,36.15l-54.33,20.57,5.67,15.58s63.31-7.54,67.62-9.84c4.31-2.3,11.1-14.17,14.28-21.4,3.18-7.23,13.62-35.71,13.62-35.71l-36.61-5.34Z" style="fill:#ffbf9d;"></path><g><path d="M433.41,307.85s-7.15-3.99-10.94-4.71c-3.79-.72-18.98-3.14-18.98-3.14,0,0-2.14,2.65,1.68,5.12,3.82,2.47,10.11,4.66,10.11,4.66,0,0-14.34,4.86-15.28,5.45-.58,.37-2.93,2.76-.75,4.84,1.48,1.41,5.88,.22,5.88,.22,0,0-1,3.54,.18,4.91s2.23,2.54,2.23,2.54c0,0,1.8,3.46,3.27,4.39,1.47,.94,4.5,2.49,4.5,2.49l4.82,1.36,16.12-7.33,11.91,.75-1.02-23.74-13.74,2.2Z" style="fill:#455a64;"></path><path d="M413.69,320.11c.02,.13-1.86,.56-4.24,.63-2.38,.08-4.29-.23-4.27-.37,.01-.14,1.92-.06,4.26-.14,2.34-.07,4.23-.27,4.26-.13Z" style="fill:#263238;"></path><path d="M438.91,317.19c.14,.04-.59,2.69-1.48,5.94-.89,3.26-1.62,5.9-1.75,5.87-.13-.03,.37-2.73,1.27-6,.89-3.27,1.83-5.85,1.96-5.81Z" style="fill:#263238;"></path><polygon points="439.95 306.8 441.12 328.94 446.09 329.26 444 306.15 439.95 306.8" style="fill:#fff;"></polygon></g><g><path d="M520.92,210.95s-16.18,4.24-19.36,11.4c-3.18,7.16-13.13,42.25-13.13,42.25l43.3,15.29s5.58-24.92,7.96-34.47c2.39-9.55,9.87-27.84-18.77-34.47Z" style="fill:#2B6797;"></path><path d="M488.43,264.6s.08,.01,.24,.06c.18,.06,.4,.12,.68,.21,.63,.21,1.49,.49,2.59,.85,2.28,.77,5.51,1.86,9.49,3.21,8.04,2.77,19.09,6.58,31.33,10.8l-.33,.2c.04-.26,.09-.53,.13-.81,2.13-12.97,4.06-24.71,5.46-33.25,.72-4.22,1.3-7.65,1.71-10.07,.21-1.16,.37-2.07,.49-2.73,.06-.29,.1-.52,.14-.71,.03-.16,.06-.24,.06-.24,0,0,0,.09-.01,.25-.02,.19-.05,.43-.09,.72-.1,.67-.23,1.59-.4,2.75-.37,2.42-.9,5.86-1.55,10.09-1.37,8.55-3.24,20.3-5.32,33.27-.04,.28-.09,.55-.13,.81l-.05,.3-.28-.1c-12.23-4.28-23.26-8.14-31.29-10.94-3.96-1.41-7.17-2.55-9.44-3.36-1.08-.4-1.93-.71-2.55-.94-.27-.1-.48-.19-.66-.26-.15-.06-.22-.09-.22-.1Z" style="fill:#263238;"></path><path d="M542.98,237.22s.02,.31-.05,.87c-.06,.55-.18,1.35-.36,2.33-.36,1.96-1,4.64-1.96,7.52-.97,2.88-2.08,5.4-2.98,7.17-.45,.89-.83,1.59-1.12,2.07-.28,.48-.46,.73-.49,.72-.07-.04,.47-1.14,1.28-2.94,.81-1.8,1.86-4.33,2.83-7.18,.96-2.86,1.65-5.5,2.09-7.43,.45-1.93,.68-3.13,.75-3.12Z" style="fill:#263238;"></path></g></g></g><g><polygon points="612.56 294.12 554.17 318.85 573.61 318.5 617.77 304.61 612.56 294.12" style="fill:#455a64;"></polygon><path d="M577.61,314.91s14.23,44.56,24.42,44.53c8.07-.02,16.08-4.49,21.44-7.49,3.78-2.12,5.41-6.7,3.87-10.75l-15.6-41.07-34.14,14.78Z" style="fill:#455a64;"></path></g></g></g></svg>
